<svg xmlns="http://www.w3.org/2000/svg" width="420.055" height="97.402" viewBox="0 0 420.055 97.402">
  <g id="グループ_4044" data-name="グループ 4044" transform="translate(-249.696 -460.952)">
    <g id="グループ_4044-2" data-name="グループ 4044" transform="translate(320.694 483.338)">
      <path id="パス_31708" data-name="パス 31708" d="M372.51,531.734V503.062a.514.514,0,0,1,.527-.526h5.975a.514.514,0,0,1,.526.526v28.672a.514.514,0,0,1-.526.526h-5.975A.514.514,0,0,1,372.51,531.734Z" transform="translate(-372.51 -500.883)" fill="#fff"/>
      <path id="パス_31709" data-name="パス 31709" d="M402.742,514.688h5.674a.257.257,0,0,1,.263.263V516.6a10.738,10.738,0,0,1,6.313-1.917,11.717,11.717,0,0,1,11.311,11.8v10.372a.514.514,0,0,1-.526.526h-5.411a.513.513,0,0,1-.526-.526v-9.77c-.075-3.607-2.4-5.862-5.637-5.712-3.682.15-5.524,3.044-5.524,7.027v8.455a.514.514,0,0,1-.526.526h-5.411a.514.514,0,0,1-.527-.526V515.214A.514.514,0,0,1,402.742,514.688Z" transform="translate(-385.043 -506.007)" fill="#fff"/>
      <path id="パス_31710" data-name="パス 31710" d="M457.124,535.132a.561.561,0,0,1-.075-.827l3.72-3.721a.528.528,0,0,1,.639-.112,9.373,9.373,0,0,0,3.607,1.052c1.879.188,3.532.113,3.682-1.2.188-1.578-2.33-1.916-5.148-2.818-4.7-1.541-6.989-3.758-6.689-7.4.3-3.871,3.607-6.839,9.056-6.839a15.108,15.108,0,0,1,8.793,2.48.519.519,0,0,1,.075.789l-3.719,3.758a.59.59,0,0,1-.639.113,9.368,9.368,0,0,0-3.569-1.052c-1.879-.188-3.57-.113-3.683,1.2-.15,1.616,2.442,2.029,4.847,2.781,5.111,1.578,7.29,3.8,6.99,7.441-.3,3.87-3.607,6.839-9.056,6.839A15.154,15.154,0,0,1,457.124,535.132Z" transform="translate(-408.087 -505.408)" fill="#fff"/>
      <path id="パス_31711" data-name="パス 31711" d="M505.479,521.922v-6.8a.323.323,0,0,0-.3-.3h-3.833a.514.514,0,0,1-.526-.526v-5.411a.514.514,0,0,1,.526-.526h3.833a.29.29,0,0,0,.3-.263V500.24a.546.546,0,0,1,.526-.564h5.374a.578.578,0,0,1,.563.564v7.853a.257.257,0,0,0,.263.263h3.682a.546.546,0,0,1,.564.526v5.411a.546.546,0,0,1-.564.526h-3.682a.291.291,0,0,0-.263.3v6.8c0,1.39,0,3.307,4.021,3.458a.513.513,0,0,1,.526.526v5.411a.546.546,0,0,1-.563.526C509.349,531.654,505.479,528.235,505.479,521.922Z" transform="translate(-426.645 -499.676)" fill="#fff"/>
      <path id="パス_31712" data-name="パス 31712" d="M558.657,515.824v-1.2a.323.323,0,0,1,.3-.3h5.449a.546.546,0,0,1,.526.563V536.38a.557.557,0,0,1-.526.6h-5.449a.3.3,0,0,1-.3-.3v-1.165a10.628,10.628,0,0,1-5.636,1.916,11.767,11.767,0,0,1-.639-23.523A10.621,10.621,0,0,1,558.657,515.824Zm-11.349,9.395a5.467,5.467,0,1,0,5-5A5.5,5.5,0,0,0,547.308,525.219Z" transform="translate(-443.637 -505.679)" fill="#fff"/>
      <path id="パス_31713" data-name="パス 31713" d="M597.936,514.688h5.674a.257.257,0,0,1,.263.263V516.6a10.74,10.74,0,0,1,6.313-1.917,11.718,11.718,0,0,1,11.312,11.8v10.372a.514.514,0,0,1-.526.526H615.56a.514.514,0,0,1-.526-.526v-9.77c-.075-3.607-2.4-5.862-5.637-5.712-3.682.15-5.524,3.044-5.524,7.027v8.455a.514.514,0,0,1-.526.526h-5.411a.513.513,0,0,1-.526-.526V515.214A.514.514,0,0,1,597.936,514.688Z" transform="translate(-467.397 -506.007)" fill="#fff"/>
      <path id="パス_31714" data-name="パス 31714" d="M654.328,521.922v-6.8a.323.323,0,0,0-.3-.3H650.2a.514.514,0,0,1-.526-.526v-5.411a.514.514,0,0,1,.526-.526h3.833a.29.29,0,0,0,.3-.263V500.24a.546.546,0,0,1,.526-.564h5.374a.578.578,0,0,1,.564.564v7.853a.256.256,0,0,0,.263.263h3.682a.546.546,0,0,1,.564.526v5.411a.546.546,0,0,1-.564.526h-3.682a.29.29,0,0,0-.263.3v6.8c0,1.39,0,3.307,4.021,3.458a.513.513,0,0,1,.526.526v5.411a.546.546,0,0,1-.564.526C658.2,531.654,654.328,528.235,654.328,521.922Z" transform="translate(-489.445 -499.676)" fill="#fff"/>
      <path id="パス_31715" data-name="パス 31715" d="M715.969,531.734V503.062a.514.514,0,0,1,.527-.526h5.975a.514.514,0,0,1,.526.526v10.559a.257.257,0,0,0,.263.263h10.822a.257.257,0,0,0,.264-.263V503.062a.513.513,0,0,1,.526-.526h5.975a.514.514,0,0,1,.526.526v28.672a.514.514,0,0,1-.526.526h-5.975a.513.513,0,0,1-.526-.526V521.174a.257.257,0,0,0-.264-.263H723.259a.257.257,0,0,0-.263.263v10.559a.514.514,0,0,1-.526.526H716.5A.514.514,0,0,1,715.969,531.734Z" transform="translate(-517.418 -500.883)" fill="#fff"/>
      <path id="パス_31716" data-name="パス 31716" d="M785.734,513.262a12.175,12.175,0,1,1-12.175,12.175A12.188,12.188,0,0,1,785.734,513.262Zm0,6.5a5.674,5.674,0,1,0,5.636,5.674A5.693,5.693,0,0,0,785.734,519.763Z" transform="translate(-541.716 -505.408)" fill="#fff"/>
      <path id="パス_31717" data-name="パス 31717" d="M827.573,525.589V515.217a.514.514,0,0,1,.526-.526h5.411a.515.515,0,0,1,.527.526v9.77c.075,3.607,2.442,5.862,5.636,5.712,3.682-.15,5.524-3.044,5.524-7.027v-8.455a.514.514,0,0,1,.526-.526h5.412a.514.514,0,0,1,.526.526v21.645a.514.514,0,0,1-.526.526H845.46a.257.257,0,0,1-.263-.263v-1.653a10.656,10.656,0,0,1-6.313,1.916A11.717,11.717,0,0,1,827.573,525.589Z" transform="translate(-564.504 -506.011)" fill="#fff"/>
      <path id="パス_31718" data-name="パス 31718" d="M884.431,535.132a.561.561,0,0,1-.075-.827l3.721-3.721a.527.527,0,0,1,.638-.112,9.382,9.382,0,0,0,3.608,1.052c1.879.188,3.532.113,3.682-1.2.188-1.578-2.33-1.916-5.148-2.818-4.7-1.541-6.989-3.758-6.689-7.4.3-3.871,3.607-6.839,9.056-6.839a15.108,15.108,0,0,1,8.793,2.48.519.519,0,0,1,.075.789l-3.72,3.758a.589.589,0,0,1-.639.113,9.374,9.374,0,0,0-3.57-1.052c-1.879-.188-3.57-.113-3.682,1.2-.151,1.616,2.443,2.029,4.847,2.781,5.111,1.578,7.29,3.8,6.99,7.441-.3,3.87-3.608,6.839-9.056,6.839A15.156,15.156,0,0,1,884.431,535.132Z" transform="translate(-588.371 -505.408)" fill="#fff"/>
      <path id="パス_31719" data-name="パス 31719" d="M927.862,525.979a11.557,11.557,0,0,1,10.823-12.025c6.764-.488,13.264,4.923,12.325,13.415-.113.827-.639,1.278-1.165,1.278H934.889c-.075,0-.113.075-.075.15a6.268,6.268,0,0,0,5.448,3.119A6.384,6.384,0,0,0,944.1,530.6a.566.566,0,0,1,.714.038l3.533,3.532a.517.517,0,0,1-.038.789,12.248,12.248,0,0,1-8.042,3.007A12.43,12.43,0,0,1,927.862,525.979Zm16.835-2.442a5.579,5.579,0,0,0-10.409,0c-.038.037.038.112.112.112h10.184A.12.12,0,0,0,944.7,523.537Z" transform="translate(-606.814 -505.687)" fill="#fff"/>
    </g>
    <path id="パス_31720" data-name="パス 31720" d="M282.562,531.973H262.247a12.565,12.565,0,0,1-12.551-12.55V509.038a11.887,11.887,0,0,1,4.3-9.163l12.4-10.32a9.4,9.4,0,0,1,12.023,0l12.4,10.32a11.888,11.888,0,0,1,4.3,9.163v10.384A12.565,12.565,0,0,1,282.562,531.973ZM272.4,493.567a3.207,3.207,0,0,0-2.055.743l-12.4,10.32a5.72,5.72,0,0,0-2.067,4.408v10.384a6.373,6.373,0,0,0,6.366,6.365h20.315a6.373,6.373,0,0,0,6.366-6.365V509.038a5.72,5.72,0,0,0-2.067-4.408l-12.4-10.32A3.209,3.209,0,0,0,272.4,493.567Z" transform="translate(0 -11.151)" fill="#fff"/>
    <path id="パス_31721" data-name="パス 31721" d="M256.619,485.408a2.881,2.881,0,0,1-1.848-.668l-2.937-2.444a2.891,2.891,0,0,1,3.7-4.444l2.937,2.444a2.891,2.891,0,0,1-1.85,5.113Z" transform="translate(-0.463 -6.848)" fill="#fff"/>
    <path id="パス_31722" data-name="パス 31722" d="M314.974,485.408a2.891,2.891,0,0,1-1.851-5.113l2.937-2.444a2.89,2.89,0,1,1,3.7,4.444l-2.937,2.444A2.88,2.88,0,0,1,314.974,485.408Z" transform="translate(-26.321 -6.848)" fill="#fff"/>
    <path id="パス_31723" data-name="パス 31723" d="M286.868,470.554a2.89,2.89,0,0,1-2.89-2.89v-3.821a2.89,2.89,0,0,1,5.781,0v3.821A2.89,2.89,0,0,1,286.868,470.554Z" transform="translate(-14.464 0)" fill="#fff"/>
    <rect id="長方形_5317" data-name="長方形 5317" width="10.9" height="10.9" rx="5.45" transform="translate(266.955 496.58)" fill="#fff"/>
    <g id="グループ_4045" data-name="グループ 4045" transform="translate(250.801 542.663)">
      <path id="パス_31724" data-name="パス 31724" d="M256.216,603.294c.229.033.327.131.327.31,0,.2-.1.475-.1.736,0,.343.049.784.082,1.144a16.782,16.782,0,0,0,.457,2.6c.768-.393,1.6-.834,2.174-1.161a6.1,6.1,0,0,0,1.324-.964,10.173,10.173,0,0,1,1.5,1.961.806.806,0,0,1,.114.393.309.309,0,0,1-.294.327,11.887,11.887,0,0,0-1.749.539,24.11,24.11,0,0,0-4.266,2.109c-1.095.735-1.7,1.405-1.7,2.092,0,.768.637,1.226,2.7,1.209a33.755,33.755,0,0,0,4.887-.425c.31-.065.441,0,.473.2.1.539.164,1.357.213,2.027.016.261-.082.327-.294.36a41.049,41.049,0,0,1-4.887.294c-3.711,0-5.574-.981-5.574-3.4,0-2.044,1.324-3.3,3.2-4.5a24.623,24.623,0,0,1-.85-4.152,9.848,9.848,0,0,0-.376-1.912A16.852,16.852,0,0,1,256.216,603.294Zm5.182.2a.216.216,0,0,1,.114-.049.3.3,0,0,1,.164.082,9.146,9.146,0,0,1,1.6,1.846.221.221,0,0,1,.049.131.2.2,0,0,1-.1.164l-.784.589a.2.2,0,0,1-.131.065c-.066,0-.115-.033-.164-.115a9.733,9.733,0,0,0-1.733-2.027Zm1.536-1.144a.216.216,0,0,1,.114-.049.313.313,0,0,1,.2.1,8.776,8.776,0,0,1,1.57,1.749.234.234,0,0,1,.065.163c0,.049-.016.1-.1.164l-.768.6a.259.259,0,0,1-.131.049.2.2,0,0,1-.163-.1A9.449,9.449,0,0,0,262,603Z" transform="translate(-251.607 -602.297)" fill="#fff"/>
      <path id="パス_31725" data-name="パス 31725" d="M295.066,612.552c.163.1.18.213.114.311a2.276,2.276,0,0,0-.36,1.079c0,.883.752,1.405,3.694,1.405a21.341,21.341,0,0,0,4.724-.588c.246-.065.311-.033.36.163a19.512,19.512,0,0,1,.36,2.174c.016.164-.065.229-.294.277a29.636,29.636,0,0,1-5.329.458c-3.677-.016-5.949-1.03-5.949-3.58a4.6,4.6,0,0,1,.915-2.566C293.922,611.981,294.624,612.308,295.066,612.552Zm3.237-6.93c1.389,0,2.615-.049,3.743-.147.327-.016.49,0,.506.18a18.906,18.906,0,0,1,.1,1.929c0,.31-.1.392-.294.408a9.422,9.422,0,0,0-4.445,1.766.579.579,0,0,1-.31.1.6.6,0,0,1-.279-.082,6.258,6.258,0,0,0-1.683-.768c.736-.474,1.422-.948,1.848-1.242a6.789,6.789,0,0,1-1.324.033,16.393,16.393,0,0,1-2.5-.294c-.2-.032-.228-.115-.228-.343.032-.589.1-1.226.212-1.978A24.766,24.766,0,0,0,298.3,605.622Z" transform="translate(-268.812 -603.514)" fill="#fff"/>
      <path id="パス_31726" data-name="パス 31726" d="M337.08,608.117c-2.027.36-3.5.687-4.953.981a11.085,11.085,0,0,0-1.095.294.912.912,0,0,1-.409.131c-.114,0-.245-.065-.327-.277a16.718,16.718,0,0,1-.751-2.337,24.285,24.285,0,0,0,3.171-.328c2.4-.343,5.721-.784,10.134-1.291.245-.033.327.082.36.229a16.778,16.778,0,0,1,.212,1.879c.017.278-.1.343-.343.343a8.208,8.208,0,0,0-1.929.278c-2.7.752-4.38,2.648-4.38,4.674,0,1.864,1.536,2.91,4.331,3.089.31,0,.507.016.49.31a9.527,9.527,0,0,1-.213,1.88c-.065.261-.13.409-.408.393-4.021-.147-6.62-2.223-6.62-5.3a5.735,5.735,0,0,1,2.73-4.92Zm4.053,1.618a.225.225,0,0,1,.115-.049.306.306,0,0,1,.163.082,9.113,9.113,0,0,1,1.6,1.847.217.217,0,0,1,.049.131.2.2,0,0,1-.1.163l-.784.589a.2.2,0,0,1-.131.065c-.065,0-.114-.033-.163-.114a9.8,9.8,0,0,0-1.733-2.027Zm1.537-1.143a.212.212,0,0,1,.114-.049.316.316,0,0,1,.2.1,8.774,8.774,0,0,1,1.569,1.749.232.232,0,0,1,.065.163c0,.049-.016.1-.1.164l-.768.6a.259.259,0,0,1-.131.049.2.2,0,0,1-.164-.1,9.419,9.419,0,0,0-1.716-2.026Z" transform="translate(-284.49 -603.557)" fill="#fff"/>
      <path id="パス_31727" data-name="パス 31727" d="M375.762,613.744c0,1.275.572,1.831,2.027,1.831,1.945,0,2.811-.834,2.811-1.945,0-1.062-.392-1.83-1.569-3.106a9.313,9.313,0,0,0,2.256-.114.529.529,0,0,1,.506.18,4.46,4.46,0,0,1,1.308,3.269c0,2.256-1.863,3.939-5.181,3.939-2.925,0-4.462-1.111-4.462-3.759,0-.474.049-1.046.114-1.716a14.807,14.807,0,0,1-2.24-.49c-.131-.049-.2-.164-.212-.36a19.7,19.7,0,0,1-.066-2.044,12.772,12.772,0,0,0,2.779.687c.082-.539.179-1.226.245-1.781a17.1,17.1,0,0,1-2.37-.475c-.228-.065-.31-.131-.31-.327-.033-.475-.049-1.275-.049-2.011a17.058,17.058,0,0,0,3.105.67c.131-.9.2-1.454.245-1.994a8.633,8.633,0,0,0,0-1.307,11.558,11.558,0,0,1,2.436.556c.295.1.474.245.474.425a.526.526,0,0,1-.163.36,1.858,1.858,0,0,0-.295.686c-.114.425-.212.883-.31,1.406a12.586,12.586,0,0,0,2.027-.114c.164-.017.213.049.213.2a15.1,15.1,0,0,1-.033,1.7c0,.213-.065.261-.31.294a16.347,16.347,0,0,1-2.24.081c-.114.573-.245,1.291-.327,1.8a21.268,21.268,0,0,0,2.353-.114c.229-.033.311.032.311.213a15.074,15.074,0,0,1-.081,1.683c-.017.212-.066.277-.278.294a21.517,21.517,0,0,1-2.6.114C375.828,612.927,375.762,613.466,375.762,613.744Z" transform="translate(-302.001 -602.548)" fill="#fff"/>
      <path id="パス_31728" data-name="パス 31728" d="M405.442,620.936a.4.4,0,0,1,.294-.147.39.39,0,0,1,.228.1,12.324,12.324,0,0,1,3.335,3.008c.13.163.147.229.147.294,0,.114-.049.179-.213.327l-1.242,1.1c-.147.13-.228.179-.294.179-.1,0-.163-.049-.261-.2a12.551,12.551,0,0,0-3.155-3.155c-.1-.081-.163-.147-.163-.2,0-.065.032-.115.147-.245Z" transform="translate(-315.953 -610.099)" fill="#fff"/>
      <path id="パス_31729" data-name="パス 31729" d="M435.478,604.318a6.681,6.681,0,0,0-.2-1.258,23.828,23.828,0,0,1,2.435.213c.327.065.524.2.524.36a.834.834,0,0,1-.147.425,1.663,1.663,0,0,0-.147.54c-.016.245-.016.523-.049.817,1.406-.066,3.187-.1,5-.1.164,0,.246.065.246.229a16.948,16.948,0,0,1,0,1.815c0,.179-.082.212-.278.212-1.733-.065-3.236-.065-4.985-.033,0,.964,0,1.961.032,2.926a5.279,5.279,0,0,1,.294,1.928,5.916,5.916,0,0,1-3.057,5.28,2.193,2.193,0,0,1-.948.31.787.787,0,0,1-.523-.294,5,5,0,0,0-1.553-1.095c2.093-.866,3.171-1.848,3.564-2.991a1.837,1.837,0,0,1-1.406.556,2.529,2.529,0,0,1-2.648-2.681,2.68,2.68,0,0,1,2.86-2.779,2.824,2.824,0,0,1,1.079.18c0-.442-.016-.8-.016-1.193-2.092.115-4.152.294-5.508.49-.426.049-.752.18-.883.18-.18,0-.278-.066-.327-.278a21.217,21.217,0,0,1-.376-2.125,14.261,14.261,0,0,0,1.879-.082c1.57-.115,3.237-.213,5.165-.327C435.511,605.021,435.511,604.727,435.478,604.318Zm-1.781,6.963a.858.858,0,0,0,.9.932.873.873,0,0,0,.882-.965.853.853,0,0,0-.882-.9A.892.892,0,0,0,433.7,611.282Z" transform="translate(-326.225 -602.619)" fill="#fff"/>
      <path id="パス_31730" data-name="パス 31730" d="M480.105,604.493a.5.5,0,0,1,.146.294.391.391,0,0,1-.261.36,2.52,2.52,0,0,0-.7.441c-1.683,1.389-3.416,2.991-4.723,4.282-.131.147-.213.261-.213.36,0,.114.049.2.229.31a42.427,42.427,0,0,1,6.228,5.1c.1.1.147.163.147.245,0,.049-.049.115-.13.212a17.95,17.95,0,0,1-1.57,1.586c-.131.115-.212.18-.31.18-.066,0-.131-.049-.212-.147a39.124,39.124,0,0,0-6.293-5.7,1.915,1.915,0,0,1-1.046-1.683,2.079,2.079,0,0,1,.817-1.586c1.57-1.569,3.122-3.106,4.43-4.479a7.525,7.525,0,0,0,1.111-1.373A13.317,13.317,0,0,1,480.105,604.493Zm.539,1.928a.217.217,0,0,1,.114-.049.307.307,0,0,1,.164.082,9.085,9.085,0,0,1,1.6,1.847.215.215,0,0,1,.049.13.2.2,0,0,1-.1.164l-.784.588a.2.2,0,0,1-.131.066c-.065,0-.114-.033-.163-.115a9.834,9.834,0,0,0-1.732-2.027Zm1.537-1.145a.22.22,0,0,1,.115-.049.316.316,0,0,1,.2.1,8.79,8.79,0,0,1,1.569,1.749.235.235,0,0,1,.066.164c0,.049-.017.1-.1.163l-.768.605a.264.264,0,0,1-.131.049.2.2,0,0,1-.164-.1,9.426,9.426,0,0,0-1.716-2.027Z" transform="translate(-344.336 -602.548)" fill="#fff"/>
      <path id="パス_31731" data-name="パス 31731" d="M513.386,605.121c.393.2.475.31.475.474s-.147.31-.295.605a8.24,8.24,0,0,0-.506,1.5,24.806,24.806,0,0,0-.638,4.659c0,.539,0,1.112.049,1.7.294-.735.523-1.275.981-2.386a8.181,8.181,0,0,0,.8,1.454.861.861,0,0,1,.147.343,1.037,1.037,0,0,1-.147.409,12,12,0,0,0-.866,2.288,2.937,2.937,0,0,0-.049.637c0,.18.017.393.017.491,0,.114-.066.18-.261.245a11.67,11.67,0,0,1-1.733.327.237.237,0,0,1-.311-.163,16.883,16.883,0,0,1-.8-5.165,27.827,27.827,0,0,1,.539-5.214,26.145,26.145,0,0,0,.425-2.909A9.383,9.383,0,0,1,513.386,605.121Zm3.531,7.861c.228,0,.278.082.294.245.1,1.079.621,1.422,2.24,1.422a24.926,24.926,0,0,0,3.514-.261c.2-.033.213.016.246.212a14.039,14.039,0,0,1,.146,1.913c0,.2-.032.245-.327.277a25.208,25.208,0,0,1-3.105.23c-2.4,0-3.694-.507-4.4-1.619a4.373,4.373,0,0,1-.474-2.337Zm-1.308-6.488c.016-.2.082-.246.212-.279a31.151,31.151,0,0,1,3.694-.277c1.193,0,1.961.032,2.648.1.409.032.457.081.457.228,0,.621,0,1.243-.065,1.913-.017.179-.082.228-.213.212-.948-.065-1.716-.1-2.779-.1a23.387,23.387,0,0,0-4.021.375C515.544,607.8,515.56,607.049,515.609,606.494Z" transform="translate(-360.729 -603.192)" fill="#fff"/>
      <path id="パス_31732" data-name="パス 31732" d="M546.414,620.936a.4.4,0,0,1,.294-.147.391.391,0,0,1,.229.1,12.313,12.313,0,0,1,3.334,3.008c.131.163.147.229.147.294,0,.114-.049.179-.212.327l-1.242,1.1c-.147.13-.229.179-.294.179-.1,0-.163-.049-.261-.2a12.56,12.56,0,0,0-3.155-3.155c-.1-.081-.163-.147-.163-.2,0-.065.032-.115.146-.245Z" transform="translate(-375.43 -610.099)" fill="#fff"/>
      <path id="パス_31733" data-name="パス 31733" d="M576.412,615.143c0,1.52.032,2.355.032,2.452,0,.213-.016.229-.229.229h-1.863c-.213,0-.229-.016-.229-.229,0-.115.032-.932.032-2.452v-3.367c0-.588.017-1.226.017-1.863-.18.229-.376.458-.572.671-.164.163-.261.261-.343.261-.1,0-.164-.114-.213-.36a8.582,8.582,0,0,0-.637-2.043,12.666,12.666,0,0,0,2.713-4.61,6.132,6.132,0,0,0,.343-1.422,14.852,14.852,0,0,1,2.108.6c.229.1.328.147.328.294,0,.131-.049.2-.18.327a2.919,2.919,0,0,0-.49,1.014,16.778,16.778,0,0,1-.817,1.846Zm7.126-4.952h1.128c1.52,0,2.043-.033,2.157-.033.213,0,.229.017.229.213v1.683c0,.213-.016.229-.229.229-.115,0-.637-.032-2.157-.032h-1.128v2.86h1.994c1.585,0,2.141-.033,2.255-.033.2,0,.213.016.213.229v1.716c0,.213-.016.229-.213.229-.114,0-.67-.032-2.255-.032h-6.081c-1.568,0-2.125.032-2.24.032-.212,0-.228-.016-.228-.229v-1.716c0-.213.016-.229.228-.229.115,0,.671.033,2.24.033h1.716v-2.86h-.931c-1.5,0-2.043.032-2.158.032-.212,0-.228-.016-.228-.229V610.37c0-.2.016-.213.228-.213.115,0,.654.033,2.158.033h.931v-2.4H579.8c-1.552,0-2.108.032-2.207.032-.212,0-.229-.016-.229-.228v-1.683c0-.212.017-.229.229-.229.1,0,.654.033,2.207.033h2.86a15.7,15.7,0,0,0-2.893-1.651c-.1-.049-.147-.082-.147-.147,0-.049.049-.115.13-.2l1.177-1.112c.18-.163.229-.163.442-.082a17.24,17.24,0,0,1,2.975,1.537c.1.065.147.131.147.18a.3.3,0,0,1-.114.212l-1.21,1.259h1.995c1.552,0,2.108-.033,2.222-.033.213,0,.229.017.229.229v1.683c0,.213-.017.228-.229.228-.114,0-.67-.032-2.222-.032h-1.619Z" transform="translate(-386.955 -602.345)" fill="#fff"/>
      <path id="パス_31734" data-name="パス 31734" d="M625.027,608.406a5.073,5.073,0,0,0,0-1.127,12.272,12.272,0,0,1,2.435.834.331.331,0,0,1,.2.294.313.313,0,0,1-.065.2,3.259,3.259,0,0,0-.294.785c-.114.539-.228,1.176-.409,1.978a25.789,25.789,0,0,1,2.5,1.487c.18.114.18.212.114.424a13.878,13.878,0,0,1-.964,1.913c-.049.082-.1.115-.164.115a.37.37,0,0,1-.228-.131,13.845,13.845,0,0,0-1.994-1.487,9.929,9.929,0,0,1-3.221,4.282.685.685,0,0,1-.409.18.451.451,0,0,1-.294-.114,5.484,5.484,0,0,0-1.961-.949,8.643,8.643,0,0,0,3.727-4.4,8.838,8.838,0,0,0-2.7-.85,10.959,10.959,0,0,1-2.174,3.466,2.867,2.867,0,0,1-2.125.833,2.285,2.285,0,0,1-2.289-2.533c0-2.37,2.141-3.955,5-4.021a31.226,31.226,0,0,0,1.112-3.433c-.818.082-1.357.147-1.962.229a4.125,4.125,0,0,0-.784.164,1.807,1.807,0,0,1-.393.065.318.318,0,0,1-.31-.228,12.832,12.832,0,0,1-.523-2.174,9.151,9.151,0,0,0,1.422.082,22.093,22.093,0,0,0,2.778-.212,2.009,2.009,0,0,0,.867-.31.39.39,0,0,1,.229-.082.548.548,0,0,1,.277.082,6.889,6.889,0,0,1,1.422,1.16.458.458,0,0,1,.147.31.481.481,0,0,1-.164.343,2.515,2.515,0,0,0-.458.817c-.457,1.242-.866,2.386-1.242,3.367a11.827,11.827,0,0,1,2.583.687A16.405,16.405,0,0,0,625.027,608.406Zm-8.255,4.806c0,.408.147.6.409.6a.936.936,0,0,0,.736-.458,8.822,8.822,0,0,0,1.013-1.716C617.541,611.708,616.772,612.509,616.772,613.212Z" transform="translate(-404.804 -602.881)" fill="#fff"/>
      <path id="パス_31735" data-name="パス 31735" d="M664.242,605.271a.212.212,0,0,1,.294.18c.082.539.115,1.176.147,1.716.017.212-.049.294-.277.343-1.079.261-1.831.425-2.8.6-1.145,3.776-2.011,6.309-3.073,9.039-.1.245-.245.245-.441.18-.442-.2-1.177-.507-1.716-.817-.18-.1-.261-.212-.18-.393a75.228,75.228,0,0,0,2.861-7.584,27.773,27.773,0,0,1-2.812.131c-.261,0-.343-.049-.376-.278-.081-.473-.147-1.34-.212-1.994.343.033.637.033,1.128.033a24.97,24.97,0,0,0,2.893-.18c.164-.7.295-1.34.409-2.059a7.931,7.931,0,0,0,.1-1.471,12.056,12.056,0,0,1,2.631.589.306.306,0,0,1,.213.327.605.605,0,0,1-.131.31,3.378,3.378,0,0,0-.327.637c-.131.409-.212.768-.327,1.194C662.853,605.647,663.67,605.451,664.242,605.271Zm-.409,8.172c.131,0,.164.081.18.245.065,1.063.735,1.406,2.207,1.406a19.74,19.74,0,0,0,2.959-.261c.147-.033.245,0,.277.163a14.315,14.315,0,0,1,.18,1.962c.016.179-.066.261-.294.294a14.916,14.916,0,0,1-2.452.2c-2.355,0-3.6-.327-4.365-1.193a4.238,4.238,0,0,1-.719-2.714A18.935,18.935,0,0,1,663.833,613.443Zm-.474-4.511c.016-.246.065-.31.343-.376a15.835,15.835,0,0,1,2.877-.31,13.552,13.552,0,0,1,2.419.2c.163.033.294.049.294.31a13.593,13.593,0,0,1-.049,1.831c-.016.31-.1.343-.425.294a14.857,14.857,0,0,0-2.582-.229,16.045,16.045,0,0,0-2.861.294C663.343,610.256,663.327,609.537,663.359,608.933Z" transform="translate(-422.08 -602.476)" fill="#fff"/>
      <path id="パス_31736" data-name="パス 31736" d="M707.046,604.493a.5.5,0,0,1,.147.294.391.391,0,0,1-.262.36,2.513,2.513,0,0,0-.7.441c-1.683,1.389-3.416,2.991-4.724,4.282-.131.147-.212.261-.212.36,0,.114.049.2.228.31a42.4,42.4,0,0,1,6.228,5.1c.1.1.147.163.147.245,0,.049-.049.115-.131.212a18.031,18.031,0,0,1-1.569,1.586c-.131.115-.213.18-.311.18-.065,0-.13-.049-.212-.147a39.07,39.07,0,0,0-6.293-5.7,1.914,1.914,0,0,1-1.046-1.683,2.077,2.077,0,0,1,.817-1.586c1.569-1.569,3.122-3.106,4.429-4.479a7.535,7.535,0,0,0,1.112-1.373A13.329,13.329,0,0,1,707.046,604.493Z" transform="translate(-440.084 -602.548)" fill="#fff"/>
      <path id="パス_31737" data-name="パス 31737" d="M741.959,605.234c.163-.049.261-.017.294.1a13.179,13.179,0,0,1,.164,1.749c.016.212-.066.31-.2.343-.85.164-1.683.31-2.7.441a46.044,46.044,0,0,1-3.384,7.274c-.082.131-.147.179-.213.179a.35.35,0,0,1-.2-.065,9.626,9.626,0,0,1-1.619-1.194c-.1-.081-.147-.147-.147-.228a.391.391,0,0,1,.082-.2,28.31,28.31,0,0,0,2.926-5.541c-.539.016-.964.016-1.39.016-.343,0-.556,0-.964-.016-.147,0-.18-.049-.228-.294a17.291,17.291,0,0,1-.2-1.9,16.544,16.544,0,0,0,1.7.082c.621,0,1.112-.017,1.733-.066.2-.7.294-1.226.409-1.83a7.7,7.7,0,0,0,.1-1.341,20.464,20.464,0,0,1,2.452.442c.212.049.31.164.31.277a.6.6,0,0,1-.164.36,1.845,1.845,0,0,0-.262.654c-.115.343-.2.686-.31,1.079C740.652,605.5,741.371,605.364,741.959,605.234Zm.1,4.969c-.017-.458-.033-.834-.1-1.373a13.128,13.128,0,0,1,2.207.343c.245.049.343.164.343.31a2.206,2.206,0,0,1-.115.376,2.492,2.492,0,0,0-.066.621c.017.883.082,1.586.18,2.648a13.315,13.315,0,0,1,3.089,1.634c.081.065.146.115.146.2a.363.363,0,0,1-.049.164,11.882,11.882,0,0,1-1.062,1.831.2.2,0,0,1-.164.1.386.386,0,0,1-.212-.13,7.192,7.192,0,0,0-1.8-1.373c0,1.405-1.177,2.32-3.188,2.32-2.174,0-3.367-1.046-3.367-2.615,0-1.586,1.291-2.714,3.171-2.714a10.639,10.639,0,0,1,1.128.066C742.139,611.74,742.074,610.873,742.058,610.2Zm-.949,4.185c-.67,0-1.127.294-1.127.768,0,.523.457.719,1.078.719.7,0,1.161-.31,1.161-.948a2.042,2.042,0,0,0-.017-.311A3.271,3.271,0,0,0,741.109,614.387Zm2.992-8.418c.114-.179.212-.228.392-.163a13.22,13.22,0,0,1,3.629,1.8c.114.066.164.131.164.229a.388.388,0,0,1-.065.2,9.582,9.582,0,0,1-.964,1.635c-.066.1-.131.147-.2.147a.226.226,0,0,1-.147-.082,12.6,12.6,0,0,0-3.727-2.027A16.182,16.182,0,0,1,744.1,605.969Z" transform="translate(-455.118 -602.488)" fill="#fff"/>
      <path id="パス_31738" data-name="パス 31738" d="M780.423,609.238a4.648,4.648,0,0,1,1.864-.392,4.145,4.145,0,0,1,4.429,4.3c0,3.025-2.468,4.773-5.884,4.773-2.778,0-3.939-1.177-3.939-2.811a2.616,2.616,0,0,1,2.8-2.305,3.019,3.019,0,0,1,3.155,2.551,2.167,2.167,0,0,0,1.324-2.207,2.346,2.346,0,0,0-2.549-2.386,6.064,6.064,0,0,0-4.005,1.716c-.392.376-1.079,1.079-1.422,1.471-.131.147-.229.212-.343.212a.479.479,0,0,1-.31-.179,13.427,13.427,0,0,1-1.291-1.471.306.306,0,0,1-.066-.18.315.315,0,0,1,.164-.246c1.324-1.078,2.729-2.353,3.825-3.449.931-.964,1.733-1.765,2.484-2.648-.964.18-1.945.393-2.811.589a5,5,0,0,0-.752.213,1.121,1.121,0,0,1-.425.114c-.2,0-.327-.065-.409-.327a12.347,12.347,0,0,1-.654-2.239,8.459,8.459,0,0,0,1.259.033,45.436,45.436,0,0,0,4.528-.622,2.884,2.884,0,0,0,.785-.228.792.792,0,0,1,.36-.147.741.741,0,0,1,.556.213,6.872,6.872,0,0,1,1.324,1.242.69.69,0,0,1,.179.458.466.466,0,0,1-.277.441,2.38,2.38,0,0,0-.7.49c-.98.916-2.06,1.912-3.221,2.992Zm-.8,5.377a.587.587,0,0,0-.653.523c0,.393.343.752,1.292.768a2.945,2.945,0,0,0,.572-.048C780.684,615.073,780.276,614.615,779.622,614.615Z" transform="translate(-472.084 -602.749)" fill="#fff"/>
      <path id="パス_31739" data-name="パス 31739" d="M816.419,608.92c.245.065.277.114.261.327a22.652,22.652,0,0,1-1.373,5.8c-.065.2-.114.245-.343.147l-1.8-.8c-.228-.115-.245-.18-.164-.36a20.066,20.066,0,0,0,1.356-5.394c.033-.245.066-.245.312-.18Zm3.367,5.753c0,.294.065.474.229.556a2.942,2.942,0,0,0,1.161.131c.735,0,1.046-.066,1.258-.327.279-.294.393-.719.393-2.452a7.421,7.421,0,0,0,1.749.638c.556.131.556.114.54.653-.082,1.8-.343,2.452-.916,2.975-.638.572-1.536.785-3.22.785-1.912,0-2.6-.164-3.007-.458-.442-.327-.621-.768-.621-1.749V609.3a19.348,19.348,0,0,0-.114-2.3,21.766,21.766,0,0,1,2.322.18c.327.032.457.163.457.294a.782.782,0,0,1-.114.376,3.717,3.717,0,0,0-.115,1.373Zm-1.177-11.834c.147-.2.2-.212.393-.163a23.51,23.51,0,0,1,4.609,2.092c.115.082.164.115.164.18a.538.538,0,0,1-.082.2l-1,1.717c-.114.212-.164.228-.343.114a23.22,23.22,0,0,0-4.692-2.337c-.115-.033-.164-.065-.164-.131a.405.405,0,0,1,.082-.179ZM825.818,608c.228-.1.277-.1.376.1a24.832,24.832,0,0,1,2.19,5.165c.066.228.049.261-.2.376l-1.847.915c-.212.1-.261.1-.327-.131a24.186,24.186,0,0,0-2.092-5.377c-.1-.2-.049-.262.164-.343Z" transform="translate(-488.445 -602.447)" fill="#fff"/>
      <path id="パス_31740" data-name="パス 31740" d="M863.086,605.258a21.234,21.234,0,0,0-.131-2.452,18.67,18.67,0,0,1,2.158.147c.2.017.327.1.327.213a.847.847,0,0,1-.114.36,4.268,4.268,0,0,0-.115,1.422v1.8l1.194-.36c1.585-.491,2.059-.687,2.174-.719.147-.033.229.032.229.2-.016.751-.032,1.536-.049,2.288a14.966,14.966,0,0,1-.441,4.1,1.428,1.428,0,0,1-1.488,1.1c-.179,0-.36,0-.556-.016-.425-.033-.458-.049-.539-.72a5.318,5.318,0,0,0-.425-1.438,3.557,3.557,0,0,0,.736.082c.261,0,.343-.049.424-.376a10.5,10.5,0,0,0,.18-2.452l-1.439.458V611.5c0,1.586.033,2.452.033,2.55,0,.212-.016.228-.212.228h-1.749c-.213,0-.229-.016-.229-.228,0-.115.033-.964.033-2.55V609.54l-1.112.359v5.067c0,.294.032.474.213.572.18.114.589.179,2.174.179s2.027-.1,2.3-.343c.2-.18.278-.457.31-1.716a7.1,7.1,0,0,0,1.683.637c.556.147.556.147.491.687-.164,1.406-.393,1.929-.98,2.3-.589.393-1.39.556-4.07.556-2.419,0-3.252-.245-3.678-.556a2.089,2.089,0,0,1-.589-1.782v-4.92c-.539.18-.8.278-.932.31-.2.049-.212.032-.245-.18L858.379,609c0-.032-.016-.065-.016-.1-.18-.016-.376-.016-.572-.016v3.547c.425-.18.867-.376,1.34-.589a13.272,13.272,0,0,0,.033,1.357c.049.7.049.7-.572.98-.964.441-2.043.866-3.122,1.242a4.328,4.328,0,0,0-.523.245.529.529,0,0,1-.31.131c-.131,0-.213-.049-.294-.228a17.234,17.234,0,0,1-.556-1.946,12.691,12.691,0,0,0,1.7-.392l.147-.049v-4.3c-.964,0-1.275.033-1.389.033-.2,0-.212-.017-.212-.229v-1.7c0-.212.016-.229.212-.229.115,0,.425.033,1.389.033v-1.226A16.707,16.707,0,0,0,855.5,603c.784.017,1.438.049,2.19.131.2.016.31.114.31.229a.912.912,0,0,1-.1.36,4.761,4.761,0,0,0-.114,1.552v1.52c.7-.016.948-.033,1.03-.033.213,0,.229.017.229.229v1.619c.261-.066.523-.147.784-.213v-1.5a17.031,17.031,0,0,0-.1-2.24c.7.016,1.389.049,2.043.114.277.033.393.114.393.212a.665.665,0,0,1-.1.36,3.88,3.88,0,0,0-.1,1.324v1.079l1.112-.343Z" transform="translate(-505.671 -602.512)" fill="#fff"/>
      <path id="パス_31741" data-name="パス 31741" d="M908.649,606.147c.1-.032.18-.016.212.131a16.876,16.876,0,0,1,.523,1.912c.033.18-.016.246-.147.295a23.262,23.262,0,0,1-4.4.784,32.654,32.654,0,0,0,.245,3.384,17.055,17.055,0,0,1,5.067,2.452.2.2,0,0,1,.1.147.36.36,0,0,1-.049.164,9.183,9.183,0,0,1-1.193,1.847.248.248,0,0,1-.18.114.148.148,0,0,1-.115-.049,12.479,12.479,0,0,0-3.563-2.272,1.6,1.6,0,0,1-.016.278c-.033,1.537-1.291,2.55-3.563,2.55-2.419,0-3.841-1.112-3.841-2.746,0-1.553,1.487-2.877,3.858-2.877a10.95,10.95,0,0,1,1.112.033c-.163-1.9-.245-3.465-.278-5.149-.016-.784-.032-1.536-.049-2.272a5.992,5.992,0,0,0-.2-1.585,19.077,19.077,0,0,1,2.648.327.315.315,0,0,1,.277.327.734.734,0,0,1-.082.294,2.426,2.426,0,0,0-.179.947c-.016.524-.016,1.177-.016,1.831A18.89,18.89,0,0,0,908.649,606.147Zm-5.917,8.222a6.514,6.514,0,0,0-1.307-.147c-1.03,0-1.52.359-1.52.817,0,.473.507.736,1.454.736.981,0,1.439-.54,1.39-1.161Z" transform="translate(-524.211 -602.715)" fill="#fff"/>
      <path id="パス_31742" data-name="パス 31742" d="M941.322,604.706a8.876,8.876,0,0,0-.686-1.373,14.664,14.664,0,0,1,2.452-.245c.473.016.621.147.621.425a2.6,2.6,0,0,0,.017.506,5.09,5.09,0,0,0,.2.736c.147.441.262.784.442,1.209a24.493,24.493,0,0,0,3.531-1.013c.163-.065.212-.065.31.147a14.635,14.635,0,0,1,.556,1.749.269.269,0,0,1-.2.36c-.85.261-1.978.572-3.286.85a16.829,16.829,0,0,0,2.4,3.236c.147.131.31.262.49.425.1.1.164.147.164.262a1.094,1.094,0,0,1-.18.458,6.668,6.668,0,0,1-.768,1.144c-.164.212-.294.31-.457.31-.131,0-.213-.032-.425-.2a6.463,6.463,0,0,0-.654-.44,7.047,7.047,0,0,0-3.416-.9c-1.471,0-2.37.491-2.37,1.373,0,1.112,1.259,1.553,3.988,1.553a17.954,17.954,0,0,0,2.648-.18,19.364,19.364,0,0,1-.473,2.207c-.066.2-.115.262-.393.294a15.048,15.048,0,0,1-1.9.082c-4.07,0-6.244-1.275-6.244-3.841,0-1.994,1.716-3.367,4.659-3.367a5.568,5.568,0,0,1,2.239.376,11.721,11.721,0,0,1-1.651-2.338c-.948.131-1.9.246-3.056.327-.6.033-1.21.065-1.766.065-.2,0-.277-.114-.343-.376a18.5,18.5,0,0,1-.426-1.978,19.694,19.694,0,0,0,2.158.033c.621-.033,1.324-.066,2.5-.213C941.779,605.817,941.567,605.31,941.322,604.706Z" transform="translate(-540.927 -602.63)" fill="#fff"/>
      <path id="パス_31743" data-name="パス 31743" d="M973,623.864a2.272,2.272,0,1,1-2.272-2.256A2.267,2.267,0,0,1,973,623.864Zm-3.695,0a1.422,1.422,0,0,0,2.844,0,1.422,1.422,0,0,0-2.844,0Z" transform="translate(-554.052 -610.445)" fill="#fff"/>
    </g>
  </g>
</svg>
