<svg xmlns="http://www.w3.org/2000/svg" width="281.846" height="65.354" viewBox="0 0 281.846 65.354">
  <g id="グループ_4047" data-name="グループ 4047" transform="translate(-249.696 -460.952)">
    <g id="グループ_4044" data-name="グループ 4044" transform="translate(297.334 475.972)">
      <path id="パス_31708" data-name="パス 31708" d="M372.51,522.127V502.889a.345.345,0,0,1,.353-.353h4.009a.345.345,0,0,1,.353.353v19.238a.345.345,0,0,1-.353.353h-4.009A.345.345,0,0,1,372.51,522.127Z" transform="translate(-372.51 -501.427)" fill="#ed6103"/>
      <path id="パス_31709" data-name="パス 31709" d="M402.568,514.686h3.807a.173.173,0,0,1,.176.177v1.11a7.2,7.2,0,0,1,4.236-1.286,7.862,7.862,0,0,1,7.589,7.917v6.959a.345.345,0,0,1-.353.353h-3.631a.345.345,0,0,1-.353-.353v-6.556c-.05-2.42-1.614-3.933-3.782-3.832-2.471.1-3.706,2.042-3.706,4.715v5.673a.345.345,0,0,1-.353.353h-3.631a.345.345,0,0,1-.353-.353V515.039A.345.345,0,0,1,402.568,514.686Z" transform="translate(-390.693 -508.862)" fill="#ed6103"/>
      <path id="パス_31710" data-name="パス 31710" d="M457.029,527.936a.376.376,0,0,1-.05-.555l2.5-2.5a.354.354,0,0,1,.429-.075,6.289,6.289,0,0,0,2.42.706c1.261.126,2.37.076,2.471-.807.126-1.059-1.563-1.285-3.454-1.891-3.152-1.034-4.69-2.521-4.488-4.967.2-2.6,2.42-4.589,6.077-4.589a10.137,10.137,0,0,1,5.9,1.664.348.348,0,0,1,.05.529l-2.5,2.521a.4.4,0,0,1-.429.076,6.285,6.285,0,0,0-2.395-.706c-1.261-.126-2.4-.076-2.471.807-.1,1.084,1.639,1.361,3.252,1.866,3.429,1.059,4.892,2.546,4.69,4.992-.2,2.6-2.42,4.589-6.077,4.589A10.168,10.168,0,0,1,457.029,527.936Z" transform="translate(-424.126 -507.992)" fill="#ed6103"/>
      <path id="パス_31711" data-name="パス 31711" d="M503.946,514.6v-4.563a.217.217,0,0,0-.2-.2h-2.572a.345.345,0,0,1-.353-.353v-3.631a.345.345,0,0,1,.353-.353h2.572a.2.2,0,0,0,.2-.176v-5.269a.366.366,0,0,1,.353-.378H507.9a.388.388,0,0,1,.378.378v5.269a.172.172,0,0,0,.177.176h2.471a.366.366,0,0,1,.378.353v3.631a.366.366,0,0,1-.378.353h-2.471a.2.2,0,0,0-.177.2V514.6c0,.933,0,2.219,2.7,2.32a.344.344,0,0,1,.353.353v3.631a.366.366,0,0,1-.378.353C506.543,521.133,503.946,518.838,503.946,514.6Z" transform="translate(-451.05 -499.676)" fill="#ed6103"/>
      <path id="パス_31712" data-name="パス 31712" d="M552.878,515.193v-.807a.217.217,0,0,1,.2-.2h3.656a.366.366,0,0,1,.353.378v14.422a.374.374,0,0,1-.353.4H553.08a.2.2,0,0,1-.2-.2V528.4a7.131,7.131,0,0,1-3.782,1.286,7.9,7.9,0,0,1-.429-15.784A7.125,7.125,0,0,1,552.878,515.193Zm-7.614,6.3a3.668,3.668,0,1,0,3.353-3.353A3.689,3.689,0,0,0,545.264,521.5Z" transform="translate(-475.702 -508.385)" fill="#ed6103"/>
      <path id="パス_31713" data-name="パス 31713" d="M597.763,514.686h3.807a.173.173,0,0,1,.176.177v1.11a7.206,7.206,0,0,1,4.236-1.286,7.862,7.862,0,0,1,7.59,7.917v6.959a.345.345,0,0,1-.353.353h-3.631a.345.345,0,0,1-.353-.353v-6.556c-.051-2.42-1.614-3.933-3.782-3.832-2.471.1-3.706,2.042-3.706,4.715v5.673a.345.345,0,0,1-.353.353h-3.631a.345.345,0,0,1-.353-.353V515.039A.345.345,0,0,1,597.763,514.686Z" transform="translate(-510.174 -508.862)" fill="#ed6103"/>
      <path id="パス_31714" data-name="パス 31714" d="M652.8,514.6v-4.563a.217.217,0,0,0-.2-.2h-2.572a.345.345,0,0,1-.353-.353v-3.631a.345.345,0,0,1,.353-.353h2.572a.194.194,0,0,0,.2-.176v-5.269a.367.367,0,0,1,.353-.378h3.606a.388.388,0,0,1,.378.378v5.269a.172.172,0,0,0,.176.176h2.471a.366.366,0,0,1,.378.353v3.631a.366.366,0,0,1-.378.353h-2.471a.2.2,0,0,0-.176.2V514.6c0,.933,0,2.219,2.7,2.32a.344.344,0,0,1,.353.353v3.631a.366.366,0,0,1-.378.353C655.392,521.133,652.8,518.838,652.8,514.6Z" transform="translate(-542.163 -499.676)" fill="#ed6103"/>
      <path id="パス_31715" data-name="パス 31715" d="M715.969,522.127V502.889a.345.345,0,0,1,.353-.353h4.009a.345.345,0,0,1,.353.353v7.085a.172.172,0,0,0,.177.176h7.261a.173.173,0,0,0,.177-.176v-7.085a.344.344,0,0,1,.353-.353h4.009a.345.345,0,0,1,.353.353v19.238a.345.345,0,0,1-.353.353h-4.009a.344.344,0,0,1-.353-.353v-7.085a.173.173,0,0,0-.177-.177h-7.261a.172.172,0,0,0-.177.177v7.085a.345.345,0,0,1-.353.353h-4.009A.345.345,0,0,1,715.969,522.127Z" transform="translate(-582.746 -501.427)" fill="#ed6103"/>
      <path id="パス_31716" data-name="パス 31716" d="M781.728,513.262a8.169,8.169,0,1,1-8.169,8.169A8.178,8.178,0,0,1,781.728,513.262Zm0,4.362a3.807,3.807,0,1,0,3.782,3.807A3.82,3.82,0,0,0,781.728,517.624Z" transform="translate(-617.998 -507.992)" fill="#ed6103"/>
      <path id="パス_31717" data-name="パス 31717" d="M827.573,522v-6.959a.345.345,0,0,1,.353-.353h3.631a.345.345,0,0,1,.353.353V521.6c.05,2.42,1.638,3.933,3.782,3.833,2.471-.1,3.706-2.042,3.706-4.715v-5.673a.345.345,0,0,1,.353-.353h3.631a.345.345,0,0,1,.353.353v14.523a.345.345,0,0,1-.353.353h-3.807a.173.173,0,0,1-.176-.176v-1.109a7.15,7.15,0,0,1-4.236,1.286A7.861,7.861,0,0,1,827.573,522Z" transform="translate(-651.061 -508.867)" fill="#ed6103"/>
      <path id="パス_31718" data-name="パス 31718" d="M884.336,527.936a.376.376,0,0,1-.05-.555l2.5-2.5a.354.354,0,0,1,.428-.075,6.3,6.3,0,0,0,2.421.706c1.26.126,2.37.076,2.471-.807.126-1.059-1.564-1.285-3.454-1.891-3.152-1.034-4.689-2.521-4.488-4.967.2-2.6,2.42-4.589,6.076-4.589a10.138,10.138,0,0,1,5.9,1.664.348.348,0,0,1,.05.529l-2.5,2.521a.4.4,0,0,1-.429.076,6.289,6.289,0,0,0-2.4-.706c-1.261-.126-2.4-.076-2.471.807-.1,1.084,1.639,1.361,3.252,1.866,3.429,1.059,4.891,2.546,4.69,4.992-.2,2.6-2.421,4.589-6.077,4.589A10.169,10.169,0,0,1,884.336,527.936Z" transform="translate(-685.688 -507.992)" fill="#ed6103"/>
      <path id="パス_31719" data-name="パス 31719" d="M927.86,522.012a7.815,7.815,0,1,1,15.531.933c-.076.555-.429.857-.782.857H932.574c-.05,0-.076.05-.05.1A4.206,4.206,0,0,0,936.18,526a4.283,4.283,0,0,0,2.572-.883.38.38,0,0,1,.479.026l2.37,2.37a.347.347,0,0,1-.025.529,8.219,8.219,0,0,1-5.4,2.018A8.34,8.34,0,0,1,927.86,522.012Zm11.3-1.638a3.743,3.743,0,0,0-6.984,0c-.025.025.025.075.075.075h6.833A.081.081,0,0,0,939.155,520.374Z" transform="translate(-712.445 -508.397)" fill="#ed6103"/>
    </g>
    <path id="パス_31720" data-name="パス 31720" d="M271.748,517.3H258.117a8.431,8.431,0,0,1-8.421-8.421v-6.968a7.976,7.976,0,0,1,2.882-6.148l8.321-6.925a6.309,6.309,0,0,1,8.067,0l8.321,6.925a7.976,7.976,0,0,1,2.882,6.148v6.968A8.431,8.431,0,0,1,271.748,517.3Zm-6.815-25.769a2.151,2.151,0,0,0-1.379.5l-8.321,6.924a3.838,3.838,0,0,0-1.387,2.958v6.968a4.276,4.276,0,0,0,4.271,4.271h13.631a4.276,4.276,0,0,0,4.271-4.271v-6.968a3.838,3.838,0,0,0-1.387-2.958l-8.321-6.925A2.153,2.153,0,0,0,264.933,491.532Z" transform="translate(0 -16.178)" fill="#ed6103"/>
    <path id="パス_31721" data-name="パス 31721" d="M254.7,482.7a1.934,1.934,0,0,1-1.24-.448l-1.97-1.64a1.94,1.94,0,1,1,2.481-2.982l1.97,1.64A1.94,1.94,0,0,1,254.7,482.7Z" transform="translate(-0.672 -9.936)" fill="#ed6103"/>
    <path id="パス_31722" data-name="パス 31722" d="M314.022,482.7a1.94,1.94,0,0,1-1.242-3.431l1.971-1.64a1.939,1.939,0,1,1,2.481,2.982l-1.97,1.64A1.933,1.933,0,0,1,314.022,482.7Z" transform="translate(-38.187 -9.935)" fill="#ed6103"/>
    <path id="パス_31723" data-name="パス 31723" d="M285.917,467.394a1.939,1.939,0,0,1-1.939-1.939v-2.564a1.939,1.939,0,1,1,3.879,0v2.564A1.939,1.939,0,0,1,285.917,467.394Z" transform="translate(-20.985 0)" fill="#ed6103"/>
    <rect id="長方形_5317" data-name="長方形 5317" width="7.314" height="7.314" rx="3.657" transform="translate(261.276 484.857)" fill="#ed6103"/>
    <g id="グループ_4045" data-name="グループ 4045" transform="translate(250.437 515.778)">
      <path id="パス_31724" data-name="パス 31724" d="M254.7,602.966c.154.022.219.088.219.208s-.066.319-.066.494c0,.23.033.526.055.768a11.251,11.251,0,0,0,.307,1.744c.515-.263,1.075-.56,1.459-.779a4.1,4.1,0,0,0,.888-.647,6.821,6.821,0,0,1,1.009,1.316.541.541,0,0,1,.077.263.207.207,0,0,1-.2.219,7.978,7.978,0,0,0-1.174.362,16.17,16.17,0,0,0-2.862,1.415c-.735.493-1.14.943-1.14,1.4,0,.516.427.823,1.81.811a22.655,22.655,0,0,0,3.279-.285c.208-.044.3,0,.318.132.066.362.11.91.143,1.36.011.175-.055.219-.2.241a27.541,27.541,0,0,1-3.279.2c-2.49,0-3.74-.658-3.74-2.281,0-1.371.888-2.216,2.149-3.016a16.523,16.523,0,0,1-.57-2.786,6.606,6.606,0,0,0-.252-1.283A11.306,11.306,0,0,1,254.7,602.966Zm3.477.132a.145.145,0,0,1,.076-.033.2.2,0,0,1,.11.055,6.135,6.135,0,0,1,1.075,1.239.148.148,0,0,1,.033.088.134.134,0,0,1-.066.11l-.526.395a.133.133,0,0,1-.088.044c-.044,0-.077-.022-.11-.077a6.532,6.532,0,0,0-1.163-1.36Zm1.031-.768a.145.145,0,0,1,.077-.033.21.21,0,0,1,.132.066,5.884,5.884,0,0,1,1.053,1.173.156.156,0,0,1,.044.109c0,.033-.011.066-.066.11l-.516.406a.173.173,0,0,1-.088.033.133.133,0,0,1-.109-.066,6.34,6.34,0,0,0-1.151-1.359Z" transform="translate(-251.607 -602.297)" fill="#ed6103"/>
      <path id="パス_31725" data-name="パス 31725" d="M294.184,610.127c.109.066.121.143.077.209a1.527,1.527,0,0,0-.241.724c0,.592.5.943,2.479.943a14.318,14.318,0,0,0,3.169-.395c.165-.044.209-.022.241.109a13.094,13.094,0,0,1,.241,1.459c.011.11-.043.154-.2.186a19.87,19.87,0,0,1-3.576.307c-2.467-.011-3.992-.691-3.992-2.4a3.088,3.088,0,0,1,.614-1.722C293.416,609.743,293.887,609.963,294.184,610.127Zm2.172-4.65c.932,0,1.754-.033,2.511-.1.22-.011.329,0,.34.121a12.7,12.7,0,0,1,.066,1.294c0,.208-.066.263-.2.274a6.323,6.323,0,0,0-2.983,1.185.389.389,0,0,1-.208.065.406.406,0,0,1-.187-.055,4.2,4.2,0,0,0-1.13-.516c.494-.318.954-.636,1.24-.834a4.556,4.556,0,0,1-.888.022,11.03,11.03,0,0,1-1.678-.2c-.131-.022-.153-.077-.153-.23.022-.395.066-.823.142-1.327A16.626,16.626,0,0,0,296.355,605.477Z" transform="translate(-276.568 -604.063)" fill="#ed6103"/>
      <path id="パス_31726" data-name="パス 31726" d="M334.6,607.185c-1.36.241-2.347.461-3.323.658a7.406,7.406,0,0,0-.735.2.612.612,0,0,1-.274.088c-.076,0-.164-.044-.22-.186a11.223,11.223,0,0,1-.5-1.568,16.235,16.235,0,0,0,2.128-.22c1.612-.23,3.838-.526,6.8-.866.164-.022.22.055.241.154a11.262,11.262,0,0,1,.142,1.261c.011.186-.065.23-.23.23a5.5,5.5,0,0,0-1.294.187c-1.809.5-2.939,1.777-2.939,3.136,0,1.25,1.031,1.953,2.906,2.073.208,0,.34.011.329.208a6.394,6.394,0,0,1-.143,1.261c-.043.175-.087.274-.274.263-2.7-.1-4.442-1.492-4.442-3.553a3.848,3.848,0,0,1,1.832-3.3Zm2.719,1.086a.151.151,0,0,1,.077-.033.206.206,0,0,1,.109.055,6.121,6.121,0,0,1,1.075,1.239.145.145,0,0,1,.033.088.133.133,0,0,1-.066.109l-.526.4a.132.132,0,0,1-.088.043c-.043,0-.076-.022-.109-.076a6.579,6.579,0,0,0-1.162-1.36Zm1.031-.767a.142.142,0,0,1,.076-.033.212.212,0,0,1,.132.066,5.886,5.886,0,0,1,1.053,1.173.156.156,0,0,1,.044.109c0,.033-.011.066-.066.11l-.515.405a.174.174,0,0,1-.088.033.133.133,0,0,1-.11-.066,6.324,6.324,0,0,0-1.152-1.36Z" transform="translate(-299.314 -604.125)" fill="#ed6103"/>
      <path id="パス_31727" data-name="パス 31727" d="M374.212,610.173c0,.855.384,1.229,1.36,1.229,1.3,0,1.886-.56,1.886-1.305a2.894,2.894,0,0,0-1.053-2.084,6.245,6.245,0,0,0,1.514-.077.355.355,0,0,1,.34.121,2.993,2.993,0,0,1,.877,2.193c0,1.514-1.25,2.643-3.477,2.643-1.963,0-2.994-.745-2.994-2.522,0-.318.033-.7.077-1.152a9.943,9.943,0,0,1-1.5-.329c-.088-.033-.132-.11-.142-.241a13.205,13.205,0,0,1-.044-1.371,8.563,8.563,0,0,0,1.865.461c.055-.362.12-.823.164-1.2a11.452,11.452,0,0,1-1.59-.318c-.153-.044-.208-.088-.208-.219-.022-.318-.033-.855-.033-1.349a11.431,11.431,0,0,0,2.084.45c.088-.6.132-.976.164-1.338a5.8,5.8,0,0,0,0-.877,7.76,7.76,0,0,1,1.634.373c.2.066.318.164.318.285a.352.352,0,0,1-.109.241,1.246,1.246,0,0,0-.2.461c-.076.285-.142.593-.208.943a8.444,8.444,0,0,0,1.36-.077c.11-.011.143.033.143.132a10.164,10.164,0,0,1-.022,1.14c0,.143-.044.175-.208.2a10.981,10.981,0,0,1-1.5.055c-.076.384-.164.866-.219,1.207a14.282,14.282,0,0,0,1.579-.077c.154-.022.209.022.209.143a10.113,10.113,0,0,1-.055,1.13c-.011.142-.044.186-.187.2a14.443,14.443,0,0,1-1.744.077C374.256,609.625,374.212,609.987,374.212,610.173Z" transform="translate(-324.72 -602.661)" fill="#ed6103"/>
      <path id="パス_31728" data-name="パス 31728" d="M405.006,620.888a.266.266,0,0,1,.2-.1.262.262,0,0,1,.153.065,8.267,8.267,0,0,1,2.238,2.018c.087.109.1.154.1.2,0,.076-.033.12-.143.219l-.834.735c-.1.087-.153.12-.2.12-.066,0-.109-.033-.175-.131a8.419,8.419,0,0,0-2.117-2.117c-.066-.055-.109-.1-.109-.132s.021-.077.1-.165Z" transform="translate(-344.961 -613.616)" fill="#ed6103"/>
      <path id="パス_31729" data-name="パス 31729" d="M433.171,603.9a4.484,4.484,0,0,0-.131-.844,16,16,0,0,1,1.634.143c.219.044.351.132.351.241a.559.559,0,0,1-.1.285,1.116,1.116,0,0,0-.1.362c-.011.164-.011.351-.033.548.943-.044,2.138-.066,3.356-.066.11,0,.165.044.165.154a11.4,11.4,0,0,1,0,1.217c0,.12-.055.143-.187.143-1.162-.044-2.171-.044-3.345-.022,0,.647,0,1.316.022,1.964a3.542,3.542,0,0,1,.2,1.294,3.97,3.97,0,0,1-2.051,3.542,1.474,1.474,0,0,1-.636.208.529.529,0,0,1-.351-.2,3.356,3.356,0,0,0-1.042-.735,3.762,3.762,0,0,0,2.391-2.007,1.232,1.232,0,0,1-.943.373,1.7,1.7,0,0,1-1.777-1.8,1.8,1.8,0,0,1,1.919-1.865,1.9,1.9,0,0,1,.724.121c0-.3-.011-.537-.011-.8-1.4.077-2.786.2-3.7.329-.286.033-.5.121-.592.121-.121,0-.187-.044-.219-.187a14.211,14.211,0,0,1-.253-1.426,9.581,9.581,0,0,0,1.261-.055c1.053-.077,2.172-.143,3.466-.219C433.193,604.376,433.193,604.179,433.171,603.9Zm-1.2,4.672a.576.576,0,0,0,.6.625.585.585,0,0,0,.592-.647.572.572,0,0,0-.592-.6A.6.6,0,0,0,431.976,608.576Z" transform="translate(-359.865 -602.764)" fill="#ed6103"/>
      <path id="パス_31730" data-name="パス 31730" d="M477.239,603.966a.337.337,0,0,1,.1.2.262.262,0,0,1-.175.241,1.691,1.691,0,0,0-.472.3c-1.129.932-2.292,2.007-3.169,2.873-.088.1-.143.175-.143.241s.033.132.154.208a28.461,28.461,0,0,1,4.179,3.422c.066.066.1.109.1.164,0,.033-.033.077-.087.142a12.057,12.057,0,0,1-1.053,1.064c-.088.077-.142.12-.208.12-.044,0-.088-.033-.142-.1a26.245,26.245,0,0,0-4.222-3.828,1.285,1.285,0,0,1-.7-1.13,1.4,1.4,0,0,1,.548-1.064c1.053-1.053,2.1-2.084,2.972-3a5.044,5.044,0,0,0,.746-.921A8.932,8.932,0,0,1,477.239,603.966Zm.362,1.294a.146.146,0,0,1,.077-.033.206.206,0,0,1,.11.055,6.1,6.1,0,0,1,1.075,1.239.145.145,0,0,1,.033.087.134.134,0,0,1-.066.11l-.526.395a.132.132,0,0,1-.088.044c-.044,0-.076-.022-.109-.077a6.6,6.6,0,0,0-1.162-1.36Zm1.031-.768a.147.147,0,0,1,.077-.033.212.212,0,0,1,.131.066,5.894,5.894,0,0,1,1.053,1.174.157.157,0,0,1,.044.11c0,.033-.011.065-.066.109l-.515.406a.177.177,0,0,1-.088.033.135.135,0,0,1-.11-.066,6.325,6.325,0,0,0-1.152-1.36Z" transform="translate(-386.141 -602.661)" fill="#ed6103"/>
      <path id="パス_31731" data-name="パス 31731" d="M512.353,604.89c.263.131.318.208.318.318s-.1.208-.2.406a5.511,5.511,0,0,0-.34,1.009,16.65,16.65,0,0,0-.428,3.126c0,.362,0,.746.033,1.14.2-.493.351-.855.658-1.6a5.487,5.487,0,0,0,.537.976.577.577,0,0,1,.1.23.694.694,0,0,1-.1.274,8.053,8.053,0,0,0-.581,1.535,1.976,1.976,0,0,0-.033.428c0,.121.011.263.011.329s-.044.121-.175.165a7.83,7.83,0,0,1-1.163.219.159.159,0,0,1-.209-.109,11.329,11.329,0,0,1-.537-3.466,18.671,18.671,0,0,1,.362-3.5,17.558,17.558,0,0,0,.285-1.952A6.282,6.282,0,0,1,512.353,604.89Zm2.369,5.275c.153,0,.186.055.2.165.066.724.417.954,1.5.954a16.714,16.714,0,0,0,2.358-.175c.132-.022.143.011.165.142a9.411,9.411,0,0,1,.1,1.284c0,.132-.022.164-.219.186a16.95,16.95,0,0,1-2.084.154c-1.612,0-2.479-.34-2.95-1.086a2.935,2.935,0,0,1-.318-1.568Zm-.877-4.354c.011-.132.055-.165.142-.187a20.889,20.889,0,0,1,2.479-.186c.8,0,1.316.022,1.777.066.274.022.307.055.307.153,0,.417,0,.834-.043,1.284-.011.12-.055.153-.143.142-.636-.044-1.152-.065-1.865-.065a15.692,15.692,0,0,0-2.7.252C513.8,606.688,513.812,606.184,513.845,605.811Z" transform="translate(-409.924 -603.595)" fill="#ed6103"/>
      <path id="パス_31732" data-name="パス 31732" d="M545.978,620.888a.266.266,0,0,1,.2-.1.263.263,0,0,1,.154.065,8.262,8.262,0,0,1,2.237,2.018c.088.109.1.154.1.2,0,.076-.033.12-.142.219l-.834.735c-.1.087-.154.12-.2.12-.065,0-.109-.033-.175-.131A8.427,8.427,0,0,0,545.2,621.9c-.066-.055-.109-.1-.109-.132s.022-.077.1-.165Z" transform="translate(-431.252 -613.616)" fill="#ed6103"/>
      <path id="パス_31733" data-name="パス 31733" d="M575.094,610.953c0,1.02.022,1.58.022,1.645,0,.143-.011.154-.154.154h-1.25c-.143,0-.154-.011-.154-.154,0-.077.022-.625.022-1.645v-2.259c0-.394.011-.822.011-1.25-.121.154-.253.307-.384.45-.11.109-.175.175-.23.175s-.11-.077-.143-.241a5.763,5.763,0,0,0-.427-1.371,8.5,8.5,0,0,0,1.82-3.093,4.117,4.117,0,0,0,.231-.954,9.985,9.985,0,0,1,1.415.406c.154.066.22.1.22.2s-.033.132-.121.219a1.96,1.96,0,0,0-.329.68,11.26,11.26,0,0,1-.548,1.239Zm4.781-3.323h.757c1.02,0,1.371-.022,1.448-.022.143,0,.154.011.154.143v1.13c0,.143-.011.154-.154.154-.077,0-.428-.022-1.448-.022h-.757v1.919h1.338c1.064,0,1.436-.022,1.513-.022.132,0,.143.011.143.154v1.151c0,.143-.011.154-.143.154-.077,0-.45-.022-1.513-.022h-4.08c-1.052,0-1.425.022-1.5.022-.142,0-.153-.011-.153-.154v-1.151c0-.143.011-.154.153-.154.077,0,.45.022,1.5.022h1.152v-1.919h-.625c-1.009,0-1.371.022-1.448.022-.142,0-.153-.011-.153-.154v-1.13c0-.131.011-.143.153-.143.077,0,.439.022,1.448.022h.625v-1.612h-.921c-1.042,0-1.415.021-1.481.021-.142,0-.154-.01-.154-.153v-1.13c0-.142.011-.154.154-.154.066,0,.439.022,1.481.022h1.919a10.537,10.537,0,0,0-1.941-1.108c-.066-.033-.1-.055-.1-.1s.033-.077.087-.132l.79-.746c.121-.109.154-.109.3-.055a11.563,11.563,0,0,1,2,1.031c.066.044.1.088.1.121a.2.2,0,0,1-.077.142l-.812.845h1.339c1.042,0,1.415-.022,1.491-.022.143,0,.154.011.154.154v1.13c0,.143-.011.153-.154.153-.076,0-.45-.021-1.491-.021h-1.086Z" transform="translate(-447.973 -602.366)" fill="#ed6103"/>
      <path id="パス_31734" data-name="パス 31734" d="M621.633,606.851a3.4,3.4,0,0,0,0-.756,8.23,8.23,0,0,1,1.634.559.222.222,0,0,1,.132.2.21.21,0,0,1-.044.132,2.186,2.186,0,0,0-.2.527c-.076.362-.153.789-.274,1.327a17.32,17.32,0,0,1,1.678,1c.121.076.121.142.077.285a9.29,9.29,0,0,1-.647,1.283c-.033.055-.065.077-.11.077a.249.249,0,0,1-.153-.088,9.3,9.3,0,0,0-1.338-1,6.662,6.662,0,0,1-2.161,2.873.459.459,0,0,1-.274.121.3.3,0,0,1-.2-.076,3.68,3.68,0,0,0-1.316-.636,5.8,5.8,0,0,0,2.5-2.95,5.926,5.926,0,0,0-1.81-.571,7.354,7.354,0,0,1-1.458,2.325,1.923,1.923,0,0,1-1.426.559,1.533,1.533,0,0,1-1.536-1.7c0-1.59,1.437-2.654,3.356-2.7a20.984,20.984,0,0,0,.746-2.3c-.549.055-.91.1-1.317.154a2.782,2.782,0,0,0-.526.11,1.21,1.21,0,0,1-.263.044.213.213,0,0,1-.208-.153,8.6,8.6,0,0,1-.351-1.459,6.145,6.145,0,0,0,.954.055,14.847,14.847,0,0,0,1.864-.142,1.348,1.348,0,0,0,.581-.208.261.261,0,0,1,.154-.055.367.367,0,0,1,.186.055,4.62,4.62,0,0,1,.954.778.307.307,0,0,1,.1.208.322.322,0,0,1-.11.23,1.687,1.687,0,0,0-.307.549c-.307.834-.581,1.6-.833,2.259a7.942,7.942,0,0,1,1.733.461A11,11,0,0,0,621.633,606.851Zm-5.539,3.225c0,.274.1.406.274.406a.629.629,0,0,0,.494-.307,5.921,5.921,0,0,0,.68-1.152C616.61,609.067,616.095,609.6,616.095,610.076Z" transform="translate(-473.87 -603.145)" fill="#ed6103"/>
      <path id="パス_31735" data-name="パス 31735" d="M661.419,604.432a.142.142,0,0,1,.2.12c.055.362.077.789.1,1.152.011.142-.033.2-.186.23-.724.175-1.228.285-1.875.406-.768,2.533-1.349,4.233-2.062,6.065-.066.164-.164.164-.3.121-.3-.132-.79-.34-1.152-.548-.121-.066-.175-.143-.121-.263a50.516,50.516,0,0,0,1.92-5.089,18.588,18.588,0,0,1-1.887.088c-.175,0-.23-.032-.252-.186-.055-.318-.1-.9-.142-1.338a7.561,7.561,0,0,0,.757.022,16.767,16.767,0,0,0,1.941-.121c.11-.472.2-.9.274-1.382a5.324,5.324,0,0,0,.066-.987,8.093,8.093,0,0,1,1.766.395.205.205,0,0,1,.143.22.406.406,0,0,1-.088.208,2.259,2.259,0,0,0-.219.428c-.088.274-.142.516-.22.8C660.486,604.684,661.035,604.553,661.419,604.432Zm-.274,5.484c.088,0,.11.055.121.164.044.713.493.943,1.481.943a13.24,13.24,0,0,0,1.985-.175c.1-.022.164,0,.186.109a9.6,9.6,0,0,1,.121,1.316c.011.12-.044.175-.2.2a10.013,10.013,0,0,1-1.645.132c-1.58,0-2.413-.219-2.928-.8a2.843,2.843,0,0,1-.483-1.821A12.71,12.71,0,0,1,661.144,609.916Zm-.318-3.027c.011-.165.044-.208.23-.252a10.628,10.628,0,0,1,1.93-.208,9.085,9.085,0,0,1,1.623.132c.109.022.2.033.2.208a9.137,9.137,0,0,1-.033,1.228c-.011.208-.066.231-.285.2a9.983,9.983,0,0,0-1.733-.154,10.759,10.759,0,0,0-1.92.2C660.816,607.777,660.8,607.295,660.826,606.889Z" transform="translate(-498.935 -602.556)" fill="#ed6103"/>
      <path id="パス_31736" data-name="パス 31736" d="M704.179,603.966a.334.334,0,0,1,.1.2.262.262,0,0,1-.176.241,1.683,1.683,0,0,0-.472.3c-1.13.932-2.292,2.007-3.169,2.873-.088.1-.142.175-.142.241s.033.132.153.208a28.44,28.44,0,0,1,4.179,3.422c.066.066.1.109.1.164,0,.033-.033.077-.088.142a12.122,12.122,0,0,1-1.053,1.064c-.088.077-.143.12-.209.12-.043,0-.087-.033-.142-.1a26.212,26.212,0,0,0-4.223-3.828,1.284,1.284,0,0,1-.7-1.13,1.394,1.394,0,0,1,.548-1.064c1.053-1.053,2.095-2.084,2.972-3a5.052,5.052,0,0,0,.746-.921A8.941,8.941,0,0,1,704.179,603.966Z" transform="translate(-525.055 -602.661)" fill="#ed6103"/>
      <path id="パス_31737" data-name="パス 31737" d="M739.329,604.416c.109-.033.175-.011.2.066a8.881,8.881,0,0,1,.11,1.173c.01.142-.044.208-.132.23-.57.11-1.129.208-1.809.3a30.9,30.9,0,0,1-2.27,4.881c-.055.088-.1.12-.143.12a.235.235,0,0,1-.131-.043,6.461,6.461,0,0,1-1.086-.8c-.066-.055-.1-.1-.1-.153a.263.263,0,0,1,.055-.132,18.989,18.989,0,0,0,1.963-3.718c-.362.011-.647.011-.932.011-.23,0-.373,0-.647-.011-.1,0-.121-.033-.153-.2a11.63,11.63,0,0,1-.132-1.272,11.106,11.106,0,0,0,1.14.055c.417,0,.746-.011,1.163-.044.132-.472.2-.822.274-1.228a5.159,5.159,0,0,0,.066-.9,13.74,13.74,0,0,1,1.646.3c.142.033.208.11.208.186a.4.4,0,0,1-.11.241,1.242,1.242,0,0,0-.176.439c-.077.23-.131.46-.208.724C738.452,604.592,738.934,604.5,739.329,604.416Zm.066,3.334c-.011-.307-.022-.559-.066-.921a8.811,8.811,0,0,1,1.48.23c.165.033.231.11.231.208a1.491,1.491,0,0,1-.077.253,1.671,1.671,0,0,0-.044.417c.011.592.055,1.064.121,1.777a8.935,8.935,0,0,1,2.073,1.1c.054.044.1.077.1.132a.242.242,0,0,1-.033.11,7.982,7.982,0,0,1-.713,1.229.132.132,0,0,1-.11.065.26.26,0,0,1-.142-.087,4.829,4.829,0,0,0-1.206-.921c0,.943-.79,1.557-2.139,1.557-1.459,0-2.259-.7-2.259-1.754a1.905,1.905,0,0,1,2.127-1.821,7.117,7.117,0,0,1,.757.044C739.449,608.781,739.406,608.2,739.4,607.75Zm-.636,2.808c-.45,0-.756.2-.756.516,0,.35.307.482.723.482.472,0,.779-.208.779-.636a1.382,1.382,0,0,0-.011-.208A2.192,2.192,0,0,0,738.759,610.558Zm2.007-5.648c.076-.12.142-.153.263-.109a8.86,8.86,0,0,1,2.435,1.206c.077.044.11.088.11.154a.259.259,0,0,1-.044.131,6.428,6.428,0,0,1-.647,1.1q-.066.1-.132.1a.152.152,0,0,1-.1-.055,8.45,8.45,0,0,0-2.5-1.36A10.82,10.82,0,0,1,740.766,604.909Z" transform="translate(-546.866 -602.574)" fill="#ed6103"/>
      <path id="パス_31738" data-name="パス 31738" d="M778.369,607.307a3.117,3.117,0,0,1,1.25-.263,2.781,2.781,0,0,1,2.972,2.884c0,2.029-1.656,3.2-3.948,3.2-1.864,0-2.643-.79-2.643-1.886a1.755,1.755,0,0,1,1.875-1.547,2.026,2.026,0,0,1,2.117,1.711,1.454,1.454,0,0,0,.888-1.481,1.574,1.574,0,0,0-1.711-1.6,4.068,4.068,0,0,0-2.687,1.152c-.263.252-.724.724-.954.987-.088.1-.154.143-.23.143a.322.322,0,0,1-.208-.12,9.014,9.014,0,0,1-.866-.987.206.206,0,0,1-.044-.121.211.211,0,0,1,.11-.165c.888-.724,1.831-1.579,2.566-2.314.625-.647,1.163-1.184,1.667-1.776-.647.121-1.305.263-1.886.395a3.374,3.374,0,0,0-.5.143.75.75,0,0,1-.285.076c-.132,0-.219-.044-.274-.219a8.283,8.283,0,0,1-.439-1.5,5.666,5.666,0,0,0,.844.022,30.5,30.5,0,0,0,3.038-.417,1.934,1.934,0,0,0,.527-.153.532.532,0,0,1,.241-.1.5.5,0,0,1,.373.143,4.617,4.617,0,0,1,.889.834.463.463,0,0,1,.12.307.313.313,0,0,1-.186.3,1.594,1.594,0,0,0-.472.329c-.658.614-1.382,1.283-2.161,2.007Zm-.538,3.608a.394.394,0,0,0-.438.351c0,.263.23.5.867.515a1.985,1.985,0,0,0,.384-.032C778.544,611.222,778.27,610.915,777.831,610.915Z" transform="translate(-571.481 -602.953)" fill="#ed6103"/>
      <path id="パス_31739" data-name="パス 31739" d="M815.28,606.858c.164.043.186.076.175.219a15.193,15.193,0,0,1-.921,3.894c-.044.131-.077.164-.23.1l-1.206-.537c-.153-.077-.164-.121-.11-.241a13.459,13.459,0,0,0,.91-3.619c.022-.165.044-.165.209-.121Zm2.259,3.86c0,.2.044.318.154.373a1.975,1.975,0,0,0,.779.088c.493,0,.7-.044.844-.219.187-.2.263-.483.263-1.645a4.973,4.973,0,0,0,1.173.428c.373.088.373.077.362.438-.055,1.207-.23,1.646-.614,2a3.046,3.046,0,0,1-2.16.526c-1.283,0-1.744-.11-2.018-.307-.3-.219-.417-.516-.417-1.173V607.11a12.981,12.981,0,0,0-.077-1.546,14.629,14.629,0,0,1,1.558.121c.219.022.307.109.307.2a.523.523,0,0,1-.077.253,2.5,2.5,0,0,0-.077.921Zm-.79-7.94c.1-.131.132-.142.263-.109a15.782,15.782,0,0,1,3.093,1.4c.077.055.11.077.11.121a.363.363,0,0,1-.055.132l-.669,1.152c-.077.143-.11.153-.23.077a15.582,15.582,0,0,0-3.148-1.568c-.077-.022-.11-.044-.11-.088a.273.273,0,0,1,.055-.12Zm4.837,3.466c.153-.066.186-.066.252.066a16.668,16.668,0,0,1,1.469,3.466c.044.153.033.175-.132.252l-1.239.614c-.142.066-.175.066-.219-.088a16.227,16.227,0,0,0-1.4-3.608c-.066-.131-.033-.176.11-.23Z" transform="translate(-595.218 -602.515)" fill="#ed6103"/>
      <path id="パス_31740" data-name="パス 31740" d="M860.026,604.451a14.244,14.244,0,0,0-.088-1.645,12.52,12.52,0,0,1,1.448.1c.131.011.219.066.219.143a.572.572,0,0,1-.076.241,2.859,2.859,0,0,0-.077.954v1.206l.8-.241c1.063-.329,1.382-.461,1.458-.483.1-.022.154.022.154.132-.011.5-.022,1.031-.033,1.535a10.041,10.041,0,0,1-.3,2.752.958.958,0,0,1-1,.735c-.12,0-.241,0-.373-.011-.285-.022-.307-.033-.361-.483a3.565,3.565,0,0,0-.285-.965,2.391,2.391,0,0,0,.494.055c.175,0,.23-.033.285-.253a7.054,7.054,0,0,0,.121-1.645l-.965.307v1.755c0,1.064.022,1.645.022,1.711,0,.142-.011.153-.142.153h-1.173c-.143,0-.154-.011-.154-.153,0-.077.022-.647.022-1.711v-1.316l-.746.241v3.4c0,.2.022.318.143.384s.395.12,1.459.12,1.36-.065,1.547-.23c.131-.121.187-.307.208-1.152a4.765,4.765,0,0,0,1.129.427c.373.1.373.1.329.461-.11.943-.264,1.294-.658,1.547s-.933.373-2.731.373c-1.623,0-2.182-.164-2.468-.373a1.4,1.4,0,0,1-.395-1.2v-3.3c-.362.121-.537.186-.625.208-.131.033-.142.022-.164-.121l-.186-1.152c0-.022-.011-.044-.011-.066-.121-.011-.253-.011-.384-.011v2.38c.285-.121.582-.253.9-.4a8.924,8.924,0,0,0,.022.911c.033.471.033.471-.384.658-.647.3-1.371.581-2.094.834a2.882,2.882,0,0,0-.351.164.355.355,0,0,1-.208.088c-.088,0-.143-.033-.2-.153a11.537,11.537,0,0,1-.373-1.306,8.508,8.508,0,0,0,1.14-.263l.1-.033v-2.885c-.647,0-.855.022-.932.022-.131,0-.142-.011-.142-.154v-1.14c0-.142.011-.154.142-.154.077,0,.285.022.932.022v-.823a11.19,11.19,0,0,0-.087-1.722c.526.011.965.033,1.47.088.131.011.208.077.208.154a.609.609,0,0,1-.066.242,3.2,3.2,0,0,0-.077,1.042v1.02c.471-.011.636-.022.691-.022.143,0,.153.011.153.154V606.7c.176-.044.351-.1.527-.143v-1.009a11.505,11.505,0,0,0-.065-1.5c.472.011.932.033,1.37.077.186.022.263.076.263.142a.446.446,0,0,1-.066.241,2.6,2.6,0,0,0-.066.888v.724l.746-.23Z" transform="translate(-620.21 -602.609)" fill="#ed6103"/>
      <path id="パス_31741" data-name="パス 31741" d="M905.056,605.206c.066-.022.121-.011.143.088a11.4,11.4,0,0,1,.351,1.283c.022.121-.011.165-.1.2a15.61,15.61,0,0,1-2.95.526,21.894,21.894,0,0,0,.164,2.27,11.445,11.445,0,0,1,3.4,1.645.131.131,0,0,1,.065.1.241.241,0,0,1-.033.11,6.152,6.152,0,0,1-.8,1.239.167.167,0,0,1-.121.077.1.1,0,0,1-.077-.033,8.37,8.37,0,0,0-2.391-1.524,1.069,1.069,0,0,1-.011.187c-.022,1.031-.867,1.711-2.391,1.711-1.623,0-2.577-.746-2.577-1.843,0-1.042,1-1.93,2.588-1.93a7.353,7.353,0,0,1,.746.022c-.109-1.272-.164-2.325-.187-3.455-.011-.526-.022-1.031-.033-1.524a4.019,4.019,0,0,0-.131-1.064,12.8,12.8,0,0,1,1.776.219.212.212,0,0,1,.186.22.491.491,0,0,1-.055.2,1.629,1.629,0,0,0-.12.636c-.011.352-.011.79-.011,1.229A12.671,12.671,0,0,0,905.056,605.206Zm-3.97,5.517a4.373,4.373,0,0,0-.877-.1c-.691,0-1.02.241-1.02.549s.34.494.976.494c.658,0,.965-.362.932-.779Z" transform="translate(-647.109 -602.903)" fill="#ed6103"/>
      <path id="パス_31742" data-name="パス 31742" d="M940.015,604.173a5.959,5.959,0,0,0-.461-.921,9.849,9.849,0,0,1,1.645-.164c.318.011.417.1.417.285a1.749,1.749,0,0,0,.011.34,3.422,3.422,0,0,0,.131.494c.1.3.176.526.3.811a16.421,16.421,0,0,0,2.369-.68c.11-.044.142-.044.208.1a9.866,9.866,0,0,1,.373,1.174.18.18,0,0,1-.131.241c-.571.175-1.327.384-2.2.57a11.293,11.293,0,0,0,1.612,2.171c.1.088.208.176.329.285.066.066.11.1.11.176a.733.733,0,0,1-.121.307,4.462,4.462,0,0,1-.516.768c-.11.142-.2.208-.307.208-.088,0-.143-.022-.285-.132a4.344,4.344,0,0,0-.439-.3,4.729,4.729,0,0,0-2.292-.6c-.987,0-1.59.329-1.59.921,0,.746.844,1.042,2.676,1.042a12.041,12.041,0,0,0,1.776-.121,12.972,12.972,0,0,1-.318,1.481c-.044.132-.077.176-.263.2a10.1,10.1,0,0,1-1.272.055c-2.731,0-4.19-.855-4.19-2.578,0-1.338,1.152-2.259,3.126-2.259a3.736,3.736,0,0,1,1.5.252,7.86,7.86,0,0,1-1.108-1.569c-.636.088-1.272.165-2.051.22-.406.022-.812.044-1.185.044-.131,0-.186-.076-.23-.252a12.394,12.394,0,0,1-.285-1.327,13.152,13.152,0,0,0,1.448.022c.417-.022.888-.044,1.678-.143C940.322,604.918,940.18,604.578,940.015,604.173Z" transform="translate(-671.361 -602.78)" fill="#ed6103"/>
      <path id="パス_31743" data-name="パス 31743" d="M971.508,623.122a1.524,1.524,0,1,1-1.525-1.514A1.521,1.521,0,0,1,971.508,623.122Zm-2.479,0a.954.954,0,0,0,1.909,0,.954.954,0,0,0-1.909,0Z" transform="translate(-690.403 -614.118)" fill="#ed6103"/>
    </g>
  </g>
</svg>
