<svg xmlns="http://www.w3.org/2000/svg" width="240" height="240" viewBox="0 0 240 240"><g data-name="レイヤー 2" fill="#ed6103"><path d="M166.966 79.875H140v-8.519A21.18 21.18 0 00119 50H91a21.18 21.18 0 00-21 21.356v97.288A21.18 21.18 0 0091 190h28a21.18 21.18 0 0021-21.356V149.1h26.966A13.051 13.051 0 00180 136.057V92.913a13.05 13.05 0 00-13.034-13.038zM174 136.057a7.044 7.044 0 01-7.034 7.039h-39.145a3.007 3.007 0 00-1.554.433l-13.252 8.023V146.1a3 3 0 00-3-3h-7.981A7.044 7.044 0 0195 136.057V92.913a7.044 7.044 0 017.034-7.038h64.932A7.044 7.044 0 01174 92.913zM134 166a6.007 6.007 0 01-6 6H82a6.007 6.007 0 01-6-6V74a6.007 6.007 0 016-6h46a6.007 6.007 0 016 6v5.875h-31.966A13.05 13.05 0 0089 92.913v43.144a13.051 13.051 0 0013.034 13.043h4.981v7.779a3 3 0 004.553 2.566l17.09-10.345H134z"/><path d="M120.608 102.736h13.753a3 3 0 000-6h-13.753a3 3 0 000 6zM159.828 111.736h-39.22a3 3 0 000 6h39.22a3 3 0 000-6zM159.828 126.736h-39.22a3 3 0 100 6h39.22a3 3 0 100-6zM111.447 96.736h-2.275a3 3 0 000 6h2.275a3 3 0 000-6zM111.447 111.736h-2.275a3 3 0 000 6h2.275a3 3 0 000-6zM111.447 126.736h-2.275a3 3 0 000 6h2.275a3 3 0 100-6z"/></g></svg>