<svg xmlns="http://www.w3.org/2000/svg" width="240" height="240" viewBox="0 0 240 240"><g data-name="レイヤー 2" fill="#ed6103"><path d="M161.891 99.742l-28.92-24.91a19.826 19.826 0 00-25.942 0l-28.92 24.91A23.627 23.627 0 0070 117.646v27.4C70 158.827 80.794 170 94.108 170h51.784C159.206 170 170 158.827 170 145.045v-27.4a23.627 23.627 0 00-8.109-17.903zm-16 64.258H94.108C84.123 164 76 155.5 76 145.045v-5.139A5 5 0 0080.07 135v-10a5 5 0 00-4.07-4.906v-2.448a17.57 17.57 0 016.024-13.358l28.921-24.91a13.825 13.825 0 0118.11 0l28.921 24.91A17.57 17.57 0 01164 117.646v2.448a5 5 0 00-4.07 4.906v10a5 5 0 004.07 4.906v5.139C164 155.5 155.877 164 145.892 164zM98.823 65.457a3 3 0 105.2-3l-3-5.2a3 3 0 10-5.2 3zM152.125 80.775a2.975 2.975 0 001.5-.4l5.2-3a3 3 0 10-3-5.195l-5.2 3a3 3 0 001.5 5.6zM136.921 66.555a3 3 0 004.1-1.1l3-5.2a3 3 0 10-5.195-3l-3 5.2a3 3 0 001.095 4.1zM81.182 77.1l5.2 3a3 3 0 003-5.2l-5.2-3a3 3 0 10-3 5.2zM119.921 62a3 3 0 003-3v-6a3 3 0 10-6 0v6a3 3 0 003 3z"/><path d="M125 120h-10a10 10 0 00-10 10v20a10 10 0 0010 10h10a10 10 0 0010-10v-20a10 10 0 00-10-10zm-14 10a4 4 0 014-4h10a4 4 0 014 4z"/></g></svg>