<svg xmlns="http://www.w3.org/2000/svg" width="240" height="240" viewBox="0 0 240 240"><path d="M170 85h-30V71.356A21.18 21.18 0 00119 50H91a21.18 21.18 0 00-21 21.356v97.288A21.18 21.18 0 0091 190h28a21.18 21.18 0 0021-21.356V155h30a10 10 0 0010-10V95a10 10 0 00-10-10zm4 60a4 4 0 01-4 4h-70a4 4 0 01-4-4v-37.448l33.414 18.091a11.568 11.568 0 004.586 1.3c.333.026.666.058 1 .058a12.623 12.623 0 002-.18 11.471 11.471 0 003-.91c.195-.09.4-.165.586-.267L174 107.552zm0-50v5.729l-34 18.409-2.27 1.229a5.008 5.008 0 01-.73.312 6.339 6.339 0 01-3 .243 5.41 5.41 0 01-1.73-.555L96 100.729V95a4 4 0 014-4h70a4 4 0 014 4zm-40 71a6.007 6.007 0 01-6 6H82a6.007 6.007 0 01-6-6V74a6.007 6.007 0 016-6h46a6.007 6.007 0 016 6v11h-34a10 10 0 00-10 10v50a10 10 0 0010 10h34z" fill="#ed6103" data-name="レイヤー 2"/></svg>