<svg xmlns="http://www.w3.org/2000/svg" width="240" height="240" viewBox="0 0 240 240"><g data-name="レイヤー 2" fill="#ed6103"><path d="M179 90h-4v-4a6 6 0 00-6-6H61a6 6 0 00-6 6v58a6 6 0 006 6h4v4a6 6 0 006 6h108a6 6 0 006-6V96a6 6 0 00-6-6zM61 86h108v58H61zm10 64h98a6 6 0 006-6V96h4v58H71z"/><path d="M112 109.928v1.572h-6.276a3 3 0 100 6H112v3h-6.276a3 3 0 100 6H112v5a3 3 0 006 0v-5h6.276a3 3 0 100-6H118v-3h6.276a3 3 0 100-6H118v-1.572l9.307-9.307a3 3 0 000-4.242 3.058 3.058 0 00-.463-.379 3 3 0 00-3.779.379l-2.121 2.121-5.944 5.943-5.944-5.943-2.121-2.121a3 3 0 00-3.779-.379 3.058 3.058 0 00-.463.379 3 3 0 000 4.242zM71 98.984c.053 0 .1.016.158.016h9.017a3 3 0 100-6h-9.017A2.994 2.994 0 0071 98.984zM149.825 137h9.017a3 3 0 000-6h-9.017a3 3 0 000 6z"/></g></svg>