<svg xmlns="http://www.w3.org/2000/svg" width="80" height="80" viewBox="0 0 80 80">
  <circle fill="#969696" cx="20" cy="20" r="20"/>
  <path fill="#FFF" d="M24.01 14.223c-2.123.079-2.39.96-2.424 1.744a.065.065 0 0 0 .065.067h2.318c.179 0 .325.145.325.325v3.247c0 .18-.146.325-.325.325h-2.226a.163.163 0 0 0-.163.163v9.246c0 .18-.146.325-.325.325h-3.238a.326.326 0 0 1-.325-.325v-9.246a.163.163 0 0 0-.163-.163h-2.307a.324.324 0 0 1-.324-.325v-3.248c0-.18.145-.325.324-.325h2.32a.163.163 0 0 0 .162-.156c.174-3.39 2.488-5.439 6.284-5.553a.326.326 0 0 1 .336.325v3.248a.326.326 0 0 1-.314.326z"/>
  <circle fill="#969696" cx="20" cy="60" r="20"/>
  <path fill="#FFF" d="M24.01 66.234a.326.326 0 0 1 .316.325v3.249a.325.325 0 0 1-.336.325c-3.95-.118-6.296-2.172-6.296-5.971v-4.096a.162.162 0 0 0-.163-.162h-2.308a.325.325 0 0 1-.324-.324v-3.25c0-.179.145-.324.324-.324h2.308c.09 0 .163-.072.163-.162v-4.726c0-.18.146-.325.325-.325h3.238c.18 0 .325.145.325.325v4.726c0 .09.073.162.163.162h2.226c.179 0 .325.146.325.325v3.249a.324.324 0 0 1-.324.324h-2.227a.162.162 0 0 0-.163.162v4.096c0 .842 0 1.983 2.428 2.072z"/>
  <circle cx="60" cy="60" r="20"/>
  <path fill="#FFF" d="M64.01 66.234a.326.326 0 0 1 .316.325v3.249a.325.325 0 0 1-.336.325c-3.95-.118-6.296-2.172-6.296-5.971v-4.096a.162.162 0 0 0-.163-.162h-2.308a.325.325 0 0 1-.324-.324v-3.25c0-.179.145-.324.324-.324h2.308c.09 0 .163-.072.163-.162v-4.726c0-.18.146-.325.325-.325h3.238c.18 0 .325.145.325.325v4.726c0 .09.073.162.163.162h2.226c.179 0 .325.146.325.325v3.249a.324.324 0 0 1-.324.324h-2.227a.162.162 0 0 0-.163.162v4.096c0 .842 0 1.983 2.428 2.072z"/>
  <circle cx="60" cy="20" r="20"/>
  <path fill="#FFF" d="M64.01 14.223c-2.123.079-2.39.96-2.424 1.744a.065.065 0 0 0 .065.067h2.318c.179 0 .325.145.325.325v3.247c0 .18-.146.325-.325.325h-2.226a.163.163 0 0 0-.163.163v9.246c0 .18-.146.325-.325.325h-3.238a.326.326 0 0 1-.325-.325v-9.246a.163.163 0 0 0-.163-.163h-2.307a.324.324 0 0 1-.324-.325v-3.248c0-.18.145-.325.324-.325h2.32a.163.163 0 0 0 .162-.156c.174-3.39 2.488-5.439 6.284-5.553a.326.326 0 0 1 .336.325v3.248a.326.326 0 0 1-.314.326z"/>
</svg>
