<svg xmlns="http://www.w3.org/2000/svg" width="48" height="48" viewBox="0 0 48 48"><path fill="#ED6103" d="M32.051 48H15.949C10.463 48 6 43.486 6 37.937v-8.325a9.574 9.574 0 013.405-7.346l9.83-8.274a7.387 7.387 0 019.53 0l9.83 8.274A9.574 9.574 0 0142 29.612v8.325C42 43.486 37.537 48 32.051 48zM24 17.208c-.579 0-1.157.199-1.629.596l-9.83 8.273a4.605 4.605 0 00-1.638 3.534v8.325c0 2.814 2.264 5.104 5.046 5.104h16.103c2.782 0 5.046-2.29 5.046-5.104v-8.325c0-1.37-.597-2.658-1.638-3.534l-9.83-8.274a2.534 2.534 0 00-1.63-.595zM11.121 14.117a2.268 2.268 0 01-1.464-.536l-2.328-1.959a2.336 2.336 0 01-.296-3.264 2.273 2.273 0 013.227-.299l2.328 1.959a2.336 2.336 0 01.296 3.264 2.278 2.278 0 01-1.763.835zM36.879 14.117a2.278 2.278 0 01-1.763-.835 2.336 2.336 0 01.296-3.264l2.328-1.959a2.274 2.274 0 013.227.299 2.336 2.336 0 01-.296 3.264l-2.328 1.959c-.428.36-.947.536-1.464.536zM24 7.698c-1.265 0-2.291-1.037-2.291-2.317V2.317C21.709 1.037 22.735 0 24 0s2.291 1.037 2.291 2.317V5.38c0 1.281-1.025 2.318-2.291 2.318z"/><path fill="#ED6103" d="M25.821 28.564h-3.642c-1.38 0-2.499 1.132-2.499 2.528v3.684c0 1.396 1.119 2.528 2.499 2.528h3.642c1.38 0 2.499-1.132 2.499-2.528v-3.684c0-1.396-1.119-2.528-2.499-2.528z"/></svg>