<svg xmlns="http://www.w3.org/2000/svg" width="28.797" height="37.732" viewBox="0 0 28.797 37.732">
  <path id="パス_31660" data-name="パス 31660" d="M584.928,405.073c0-5.529.027-11.06-.023-16.59-.011-1.088.278-1.523,1.414-1.48,2.016.07,4.038.07,6.054,0,1.144-.041,1.434.412,1.428,1.5-.038,8.393-.021,16.79-.02,25.185,0,2.114.111,2.221,2.291,2.221,5.409,0,10.819.025,16.226-.018,1.04-.009,1.441.267,1.4,1.355-.075,2.057-.057,4.119-.005,6.175.023.925-.274,1.314-1.231,1.314-8.193-.021-16.387,0-24.582-.025-1.96-.007-2.946-1.081-2.95-3.046Q584.921,413.367,584.928,405.073Z" transform="translate(-584.904 -387)" fill="#ed6103" fill-rule="evenodd"/>
</svg>
